<svg xmlns="http://www.w3.org/2000/svg" width="18" height="18" fill="none"><path stroke="#fff" stroke-linecap="round" stroke-linejoin="round" stroke-width="1.067" d="M1.991 6.741a7.12 7.12 0 0 1 2.233-3.16M1.578 9.112c0 .833.15 1.627.413 2.37M14.661 3.112A1.334 1.334 0 1 1 12.774 5a1.334 1.334 0 0 1 1.887-1.887Z"/><path stroke="#fff" stroke-linecap="round" stroke-linejoin="round" stroke-width="1.067" d="M12.681 3.228a7.105 7.105 0 0 0-6.062-.92M7.852 6.787 10.919 8.6a.591.591 0 0 1 0 1.02l-3.067 1.814a.592.592 0 0 1-.894-.51V7.297a.593.593 0 0 1 .894-.51ZM4.224 14.62a7.042 7.042 0 0 1-.939-.894M6.619 15.914a7.11 7.11 0 0 0 9.18-6.803c0-.429-.043-.847-.116-1.254"/></svg>