<svg xmlns="http://www.w3.org/2000/svg" width="18" height="18" fill="none"><path stroke="#fff" stroke-linecap="round" stroke-linejoin="round" stroke-width="1.067" d="M14.878 15.333H3.03a1.482 1.482 0 0 1-1.481-1.481V3.482A1.481 1.481 0 0 1 3.03 2h11.848a1.481 1.481 0 0 1 1.481 1.481v10.37a1.481 1.481 0 0 1-1.481 1.482Z"/><path fill="#fff" d="M7.039 5.397a1.482 1.482 0 1 1-2.06 2.132 1.482 1.482 0 0 1 2.06-2.132Z"/><path stroke="#fff" stroke-linecap="round" stroke-linejoin="round" stroke-width="1.067" d="m16.361 11.63-3.125-2.5a.742.742 0 0 0-1.041.115l-2.472 3.09a.742.742 0 0 1-1.041.115l-1.384-1.108a.74.74 0 0 0-1.032.105l-3.238 3.886"/></svg>