<svg xmlns="http://www.w3.org/2000/svg" width="230" height="230" fill="none"><path fill="#fff" d="M170.961 139.592c-.442.346-.904.64-1.383.879-1.868.913-3.985.835-5.709-.576-1.725-1.407-3.093-4.273-3.062-7.239-1.844 1.966-4.622 1.589-6.217-.818-.955-1.455-1.423-3.567-1.345-5.615.043-1.342.324-2.671.846-3.767 1.303-2.784 3.951-3.736 5.979-2.242.132-5.52 2.898-10.681 6.458-11.988 1.291-.489 2.657-.442 3.948.039-.525-28.877-1.263-56.844-2.212-71.495-14.457-1.65-30.535-2.208-45.878-2.208-26.168.005-50.196 1.624-60.435 2.226-1.432 22.092-2.379 74.416-2.84 114.493l-.07 6.251a4930.575 4930.575 0 0 0-.238 30.652c-.005 1.433-.008 2.779-.011 4.031 12.83 2.117 34.608 3.446 55.962 3.684 2.273.026 4.542.039 6.797.039 5.758 0 11.416-.087 16.778-.26 13.008-.42 24.286-1.364 31.108-2.914a36.632 36.632 0 0 0 1.988-.506c-.022-11.464-.18-30.972-.464-52.666Z"/><path fill="#fff" d="M170.961 139.592c-.442.346-.904.64-1.383.879-1.868.913-3.985.835-5.709-.576-1.725-1.407-3.093-4.273-3.062-7.239-1.844 1.966-4.622 1.589-6.217-.818-.955-1.455-1.423-3.567-1.345-5.615.043-1.342.324-2.671.846-3.767 1.303-2.784 3.951-3.736 5.979-2.242.132-5.52 2.898-10.681 6.458-11.988 1.291-.489 2.657-.442 3.948.039l.485 31.327Z"/><path fill="#97DCE5" d="M170.898 74.946c-.121-8.736-.261-17.75-.422-26.681-1.291-.48-2.657-.529-3.948-.04-3.56 1.308-6.326 6.469-6.458 11.989-2.028-1.494-4.676-.541-5.979 2.242-.522 1.095-.803 2.425-.846 3.767-.078 2.047.39 4.16 1.345 5.615 1.595 2.407 4.373 2.784 6.217.818-.031 2.966 1.337 5.832 3.062 7.239 1.724 1.411 3.841 1.489 5.709.576a8.07 8.07 0 0 0 1.383-.88c-.02-1.536-.04-3.086-.063-4.645ZM104.994 48.68c-3.744-2.831-8.452-2.325-11.97 1.113-2.16-5.745-6.988-8.875-11.251-7.304-4.255 1.59-7.566 7.75-7.718 14.365-2.43-1.77-5.6-.64-7.161 2.684l-.109.247c-1.455 3.325-1.15 8.156.714 10.988 1.9 2.883 5.222 3.325 7.437.982-.046 3.555 1.595 6.975 3.655 8.663 2.074 1.684 4.613 1.784 6.837.689 2.237-1.1 4.18-3.308 5.74-5.944.554 2.879 2.64 5.09 4.625 5.126 1.986.03 3.896-2.083 4.482-4.932 3.83 1.13 8.541-3.93 9.843-9.628l.012-.017c.097-.442.183-.866.238-1.308.823-6.208-1.618-12.875-5.374-15.724Z"/><g clip-path="url(#a)"><path fill="#75CE9E" d="M238.474 147.761c-.867-1.606-1.733-3.212-2.703-4.784-1.194-1.948-2.535-3.849-4.225-5.55-3.052-3.065-7.462-5.52-12.373-5.767-9.173-.472-15.997 6.369-20.821 12.577a336.005 336.005 0 0 0-19.546 27.855 601.045 601.045 0 0 1-14.596-21.811 618.156 618.156 0 0 1-7.631-12.313 540.007 540.007 0 0 1-13.523-23.586c-2.638-4.862-5.26-9.841-9.403-14.014-3.586-3.62-8.557-6.602-14.144-7.55a23.2 23.2 0 0 0-2.638-.295c-12.471-.64-21.732 8.68-28.289 17.097a464.574 464.574 0 0 0-30.185 43.661l-.13 6.251c-.24 12.058-.393 22.703-.453 30.652-.011 1.433-.017 2.779-.022 4.031 24.375 2.117 65.751 3.446 106.319 3.684 4.317.026 8.629.039 12.913.039 10.939 0 21.688-.087 31.875-.26 24.713-.42 46.139-1.364 59.101-2.914-10.928-15.2-20.81-30.911-29.526-47.003Z"/><path fill="#61C58E" d="M119.509 92.817a23.15 23.15 0 0 0-2.638-.294c-12.471-.64-21.731 8.68-28.288 17.097a464.592 464.592 0 0 0-30.186 43.661c-.043 2.121-.087 4.208-.13 6.251 8.246-13.027 17.147-25.777 27.803-37.63 9.604-10.711 20.718-20.716 33.439-29.085ZM164.21 150.28c-5.506 8.858-13.649 16.738-23.422 22.877-16.455 10.351-37.173 15.953-58.098 17.278-8.301.524-16.613.403-24.876-.251-.011 1.433-.017 2.779-.022 4.03 24.375 2.117 65.751 3.447 106.319 3.685a331.56 331.56 0 0 1 14.695-25.807 600.207 600.207 0 0 1-14.596-21.812Z"/></g><path fill="#85D7E3" d="M164.032 71.756c-.358-1.671-.327-3.88-1.368-4.615-.663-.46-1.421-.065-2.095.294-1.411.753-2.909 1.377-4.395 1.113-1.116-.213-2.235-1.03-2.929-2.325-.078 2.047.39 4.16 1.345 5.615 1.595 2.407 4.373 2.784 6.217.818-.031 2.966 1.337 5.832 3.062 7.239 1.724 1.411 3.841 1.489 5.709.576a8.07 8.07 0 0 0 1.383-.88c-.02-1.536-.04-3.086-.063-4.645-.847.624-1.768 1-2.709.987-1.781-.017-3.603-1.623-4.157-4.177ZM78.59 80.418c2.075 1.684 4.614 1.784 6.838.689 2.237-1.1 4.18-3.308 5.74-5.944.554 2.879 2.64 5.09 4.625 5.126 1.986.03 3.896-2.083 4.482-4.932 3.83 1.13 8.541-3.93 9.843-9.628-2.367 2.455-5.394 3.62-8.065 2.143-2.3-1.277-4.208-4.373-6.661-4.42-1.77-.035-3.366 1.589-4.668 3.407-1.314 1.8-2.485 3.879-4.037 5.156-1.552 1.295-3.666 1.559-4.98-.23-1.51-2.06-1.478-6.09-3.214-7.71-.998-.952-2.29-.753-3.417-.277-1.139.49-2.235 1.243-3.408 1.342-1.412.13-2.843-.736-3.799-2.312-.519-.866-.889-1.913-1.084-3.043-1.455 3.325-1.15 8.156.714 10.988 1.9 2.883 5.222 3.325 7.437.982-.046 3.555 1.595 6.975 3.655 8.663Z"/><path fill="#CAB1FE" d="m58.339 193.375-.364-.061.002-.55c.015-8.381.104-21.27.264-36.249.436-40.955 1.415-97.553 2.935-120.381l.035-.528.355-.022c10.028-.584 34.325-2.247 60.82-2.247 15.478 0 31.705.567 46.28 2.247l.341.039.035.51c2.074 31.18 3.141 125.339 3.199 156.631v.507l-.327.095c-8.874 2.645-28.877 3.797-50.363 3.797-11.72 0-23.873-.342-34.878-.983-11.183-.649-21.182-1.602-28.334-2.805Zm129.787 3.177c-.356-50.934-1.698-147.642-4.016-183.182-18.766-2.143-39.644-2.87-59.566-2.87-27.941 0-54.003 1.429-69.737 2.364-3.417.208-6.343.385-8.699.524C43.46 53.992 42.086 174.29 42 215.16c18.39 3.048 51.056 4.84 81.456 4.84 27.546.004 53.263-1.476 64.762-4.797-.011-5.083-.043-11.403-.092-18.651Z"/><path fill="#9E6FFF" d="M111.082 209.774a84.24 84.24 0 0 1-24.409-13.594c-11.183-.649-21.182-1.602-28.334-2.805l-.364-.061.002-.55c.015-8.381.104-21.27.264-36.249-8.578-21.82-11.717-48.263-11.197-73.82.485-23.646 3.824-46.86 7.763-69.831-3.417.208-6.343.385-8.699.524C43.46 53.992 42.086 174.29 42 215.16c18.39 3.048 51.056 4.84 81.456 4.84 27.546.004 53.263-1.476 64.762-4.797-.011-5.083-.043-11.403-.092-18.651-23.342 17.906-51.383 22.34-77.044 13.222Z"/><defs><clipPath id="a"><path fill="#fff" d="M58 198h121V92H58z"/></clipPath></defs></svg>