<svg xmlns="http://www.w3.org/2000/svg" width="18" height="18" fill="none"><path stroke="#fff" stroke-linecap="round" stroke-linejoin="round" stroke-width="1.067" d="m8.316 7.043 2.875 1.701a.556.556 0 0 1 0 .956l-2.875 1.701a.555.555 0 0 1-.839-.479v-3.4a.556.556 0 0 1 .839-.479Z"/><path stroke="#fff" stroke-linecap="round" stroke-linejoin="round" stroke-width="1.067" d="M13.544 15.889H4.656a2.222 2.222 0 0 1-2.223-2.222v-8.89a2.222 2.222 0 0 1 2.223-2.221h8.889a2.222 2.222 0 0 1 2.222 2.222v8.889a2.222 2.222 0 0 1-2.223 2.222Z"/></svg>