<svg xmlns="http://www.w3.org/2000/svg" width="230" height="230" fill="none"><mask id="a" fill="#fff"><path fill-rule="evenodd" d="M187.083 176.048a5.072 5.072 0 0 1-2.68 4.473 5.073 5.073 0 0 0 2.356-4.285v-10.833a5.08 5.08 0 0 0-5.082-5.079H170.83c-.864 0-1.677.216-2.39.596a5.057 5.057 0 0 1 2.714-.784h10.847a5.08 5.08 0 0 1 5.082 5.077v10.835Zm-21.335-10.645a5.076 5.076 0 0 1 2.692-4.483 5.071 5.071 0 0 0-2.368 4.293v10.835a5.078 5.078 0 0 0 5.082 5.074h10.847c.869 0 1.687-.218 2.402-.601a5.063 5.063 0 0 1-2.726.791H170.83a5.08 5.08 0 0 1-5.082-5.076v-10.833Zm-9.375 10.645a5.07 5.07 0 0 1-2.686 4.477 5.073 5.073 0 0 0 2.362-4.289v-10.833a5.08 5.08 0 0 0-5.079-5.079h-10.847c-.864 0-1.677.216-2.39.596a5.057 5.057 0 0 1 2.714-.784h10.847a5.077 5.077 0 0 1 5.079 5.077v10.835ZM64.252 64.598a5.076 5.076 0 0 1-2.692 4.482 5.072 5.072 0 0 0 2.368-4.293V53.952a5.077 5.077 0 0 0-5.082-5.074H47.999c-.869 0-1.687.218-2.402.601a5.063 5.063 0 0 1 2.726-.791H59.17a5.08 5.08 0 0 1 5.082 5.076v10.833ZM42.918 53.951a5.071 5.071 0 0 1 2.68-4.473 5.07 5.07 0 0 0-2.357 4.285v10.833a5.08 5.08 0 0 0 5.082 5.079H59.17c.864 0 1.677-.216 2.39-.596a5.062 5.062 0 0 1-2.714.784H47.999a5.08 5.08 0 0 1-5.082-5.077V53.952Zm-9.376 10.645a5.076 5.076 0 0 1-2.696 4.487 5.072 5.072 0 0 0 2.373-4.297V53.952a5.077 5.077 0 0 0-5.081-5.074H17.293c-.91 0-1.76.24-2.494.66a5.062 5.062 0 0 1 2.817-.85h10.847a5.077 5.077 0 0 1 5.079 5.076v10.833Zm42.771-15.122a5.07 5.07 0 0 0-2.686 4.477v10.835a5.077 5.077 0 0 0 5.08 5.077h10.846c.998 0 1.929-.287 2.714-.784a5.064 5.064 0 0 1-2.39.596H79.03a5.079 5.079 0 0 1-5.08-5.079V53.764c0-1.804.944-3.389 2.363-4.289Zm122.841 111.441a5.078 5.078 0 0 0-2.696 4.487v10.833a5.077 5.077 0 0 0 5.079 5.076h10.847a5.057 5.057 0 0 0 2.817-.851 5.002 5.002 0 0 1-2.494.661h-10.845a5.077 5.077 0 0 1-5.081-5.074v-10.835c0-1.809.947-3.397 2.373-4.297Z" clip-rule="evenodd"/><path fill-rule="evenodd" d="M166.788 190h55.342a4.868 4.868 0 0 0 4.87-4.864V44.865A4.868 4.868 0 0 0 222.13 40H7.87A4.868 4.868 0 0 0 3 44.864V185.135A4.868 4.868 0 0 0 7.87 190h158.918ZM58.846 69.864H47.999a5.08 5.08 0 0 1-5.082-5.077V53.952a5.071 5.071 0 0 1 2.68-4.473 5.063 5.063 0 0 1 2.726-.791H59.17a5.08 5.08 0 0 1 5.082 5.076v10.833a5.076 5.076 0 0 1-2.692 4.483 5.062 5.062 0 0 1-2.714.784Zm19.86-20.986h10.847a5.077 5.077 0 0 1 5.082 5.074v10.835a5.072 5.072 0 0 1-2.368 4.293 5.062 5.062 0 0 1-2.714.784H78.706a5.077 5.077 0 0 1-5.079-5.077V53.952a5.07 5.07 0 0 1 5.08-5.074Zm30.71 0a5.076 5.076 0 0 0-5.082 5.074v10.835a5.078 5.078 0 0 0 5.082 5.077h10.844a5.08 5.08 0 0 0 5.082-5.077V53.952a5.078 5.078 0 0 0-5.082-5.074h-10.844Zm30.707 0a5.078 5.078 0 0 0-5.082 5.074v10.835a5.08 5.08 0 0 0 5.082 5.077h10.847a5.079 5.079 0 0 0 5.079-5.077V53.952a5.076 5.076 0 0 0-5.079-5.074h-10.847Zm41.554 132.434H170.83a5.08 5.08 0 0 1-5.082-5.076v-10.833a5.076 5.076 0 0 1 2.692-4.483 5.057 5.057 0 0 1 2.714-.784h10.847a5.08 5.08 0 0 1 5.082 5.077v10.835a5.072 5.072 0 0 1-2.68 4.473 5.063 5.063 0 0 1-2.726.791ZM170.83 48.878a5.078 5.078 0 0 0-5.082 5.074v10.835a5.08 5.08 0 0 0 5.082 5.077h10.847a5.08 5.08 0 0 0 5.082-5.077V53.952a5.078 5.078 0 0 0-5.082-5.074H170.83Zm30.707 111.446h10.847a5.08 5.08 0 0 1 5.082 5.079v10.833a5.068 5.068 0 0 1-2.265 4.225 5.057 5.057 0 0 1-2.817.851h-10.847a5.077 5.077 0 0 1-5.079-5.076v-10.833a5.078 5.078 0 0 1 5.079-5.079Zm0-111.446a5.075 5.075 0 0 0-5.079 5.074v10.835a5.077 5.077 0 0 0 5.079 5.077h10.847a5.08 5.08 0 0 0 5.082-5.077V53.952a5.078 5.078 0 0 0-5.082-5.074h-10.847Zm-50.243 132.244h-10.847a5.078 5.078 0 0 1-5.082-5.074v-10.835c0-1.807.945-3.394 2.368-4.293a5.057 5.057 0 0 1 2.714-.784h10.847a5.077 5.077 0 0 1 5.079 5.077v10.835a5.07 5.07 0 0 1-5.079 5.074Zm-30.71 0a5.076 5.076 0 0 0 5.082-5.074v-10.835a5.078 5.078 0 0 0-5.082-5.077H109.74a5.08 5.08 0 0 0-5.082 5.077v10.835a5.078 5.078 0 0 0 5.082 5.074h10.844Zm-30.707 0a5.078 5.078 0 0 0 5.082-5.074v-10.835a5.08 5.08 0 0 0-5.082-5.077H79.03a5.079 5.079 0 0 0-5.08 5.077v10.835a5.077 5.077 0 0 0 5.08 5.074h10.847Zm-30.707 0a5.078 5.078 0 0 0 5.082-5.074v-10.835a5.08 5.08 0 0 0-5.082-5.077H48.323a5.08 5.08 0 0 0-5.082 5.077v10.835a5.078 5.078 0 0 0 5.082 5.074H59.17ZM28.463 69.676H17.616a5.08 5.08 0 0 1-5.082-5.079V53.764c0-1.763.9-3.315 2.265-4.225a5.062 5.062 0 0 1 2.817-.851h10.847a5.077 5.077 0 0 1 5.079 5.076v10.833a5.076 5.076 0 0 1-5.08 5.079Zm0 111.446a5.075 5.075 0 0 0 5.079-5.074v-10.835a5.077 5.077 0 0 0-5.08-5.077H17.617a5.08 5.08 0 0 0-5.082 5.077v10.835a5.078 5.078 0 0 0 5.082 5.074h10.847Z" clip-rule="evenodd"/><path fill-rule="evenodd" d="M42.917 53.952a5.071 5.071 0 0 1 2.68-4.473 5.07 5.07 0 0 0-2.356 4.285v10.833a5.08 5.08 0 0 0 5.082 5.079H59.17c.864 0 1.677-.216 2.39-.596a5.062 5.062 0 0 1-2.714.784H47.999a5.08 5.08 0 0 1-5.082-5.077V53.952ZM61.56 69.08a5.076 5.076 0 0 0 2.692-4.483V53.764a5.08 5.08 0 0 0-5.082-5.076H48.323c-1.003 0-1.938.29-2.726.791a5.066 5.066 0 0 1 2.402-.6h10.847a5.077 5.077 0 0 1 5.082 5.073v10.835a5.072 5.072 0 0 1-2.368 4.293Zm12.067-15.128a5.07 5.07 0 0 1 2.686-4.477 5.072 5.072 0 0 0-2.362 4.289v10.833a5.079 5.079 0 0 0 5.08 5.079h10.846c.864 0 1.677-.216 2.39-.596a5.062 5.062 0 0 1-2.714.784H78.706a5.077 5.077 0 0 1-5.079-5.077V53.952ZM33.542 64.597a5.076 5.076 0 0 1-2.696 4.487 5.072 5.072 0 0 0 2.373-4.297V53.952a5.077 5.077 0 0 0-5.081-5.074H17.293c-.91 0-1.76.24-2.494.66a5.062 5.062 0 0 1 2.817-.85h10.847a5.077 5.077 0 0 1 5.079 5.076v10.833ZM170.83 181.312h10.847c1.003 0 1.938-.29 2.726-.791a5.072 5.072 0 0 0 2.68-4.473v-10.835a5.08 5.08 0 0 0-5.082-5.077h-10.847c-.998 0-1.929.287-2.714.784a5.076 5.076 0 0 0-2.692 4.483v10.833a5.08 5.08 0 0 0 5.082 5.076Zm-4.758-16.099c0-1.807.945-3.394 2.368-4.293a5.065 5.065 0 0 1 2.39-.596h10.847a5.08 5.08 0 0 1 5.082 5.079v10.833c0 1.801-.94 3.384-2.356 4.285a5.073 5.073 0 0 1-2.402.601h-10.847a5.078 5.078 0 0 1-5.082-5.074v-10.835Zm46.312 16.099a5.057 5.057 0 0 0 2.817-.851 5.002 5.002 0 0 1-2.494.661h-10.845a5.077 5.077 0 0 1-5.081-5.074v-10.835c0-1.809.947-3.397 2.373-4.297a5.078 5.078 0 0 0-2.696 4.487v10.833a5.077 5.077 0 0 0 5.079 5.076h10.847Zm-71.937-21.176c-.998 0-1.929.287-2.714.784a5.065 5.065 0 0 1 2.39-.596h10.847a5.08 5.08 0 0 1 5.079 5.079v10.833a5.073 5.073 0 0 1-2.362 4.289 5.07 5.07 0 0 0 2.686-4.477v-10.835a5.077 5.077 0 0 0-5.079-5.077h-10.847Z" clip-rule="evenodd"/></mask><path fill="#FFAB53" fill-rule="evenodd" d="M187.083 176.048a5.072 5.072 0 0 1-2.68 4.473 5.073 5.073 0 0 0 2.356-4.285v-10.833a5.08 5.08 0 0 0-5.082-5.079H170.83c-.864 0-1.677.216-2.39.596a5.057 5.057 0 0 1 2.714-.784h10.847a5.08 5.08 0 0 1 5.082 5.077v10.835Zm-21.335-10.645a5.076 5.076 0 0 1 2.692-4.483 5.071 5.071 0 0 0-2.368 4.293v10.835a5.078 5.078 0 0 0 5.082 5.074h10.847c.869 0 1.687-.218 2.402-.601a5.063 5.063 0 0 1-2.726.791H170.83a5.08 5.08 0 0 1-5.082-5.076v-10.833Zm-9.375 10.645a5.07 5.07 0 0 1-2.686 4.477 5.073 5.073 0 0 0 2.362-4.289v-10.833a5.08 5.08 0 0 0-5.079-5.079h-10.847c-.864 0-1.677.216-2.39.596a5.057 5.057 0 0 1 2.714-.784h10.847a5.077 5.077 0 0 1 5.079 5.077v10.835ZM64.252 64.598a5.076 5.076 0 0 1-2.692 4.482 5.072 5.072 0 0 0 2.368-4.293V53.952a5.077 5.077 0 0 0-5.082-5.074H47.999c-.869 0-1.687.218-2.402.601a5.063 5.063 0 0 1 2.726-.791H59.17a5.08 5.08 0 0 1 5.082 5.076v10.833ZM42.918 53.951a5.071 5.071 0 0 1 2.68-4.473 5.07 5.07 0 0 0-2.357 4.285v10.833a5.08 5.08 0 0 0 5.082 5.079H59.17c.864 0 1.677-.216 2.39-.596a5.062 5.062 0 0 1-2.714.784H47.999a5.08 5.08 0 0 1-5.082-5.077V53.952Zm-9.376 10.645a5.076 5.076 0 0 1-2.696 4.487 5.072 5.072 0 0 0 2.373-4.297V53.952a5.077 5.077 0 0 0-5.081-5.074H17.293c-.91 0-1.76.24-2.494.66a5.062 5.062 0 0 1 2.817-.85h10.847a5.077 5.077 0 0 1 5.079 5.076v10.833Zm42.771-15.122a5.07 5.07 0 0 0-2.686 4.477v10.835a5.077 5.077 0 0 0 5.08 5.077h10.846c.998 0 1.929-.287 2.714-.784a5.064 5.064 0 0 1-2.39.596H79.03a5.079 5.079 0 0 1-5.08-5.079V53.764c0-1.804.944-3.389 2.363-4.289Zm122.841 111.441a5.078 5.078 0 0 0-2.696 4.487v10.833a5.077 5.077 0 0 0 5.079 5.076h10.847a5.057 5.057 0 0 0 2.817-.851 5.002 5.002 0 0 1-2.494.661h-10.845a5.077 5.077 0 0 1-5.081-5.074v-10.835c0-1.809.947-3.397 2.373-4.297Z" clip-rule="evenodd"/><path fill="#FFAB53" fill-rule="evenodd" d="M166.788 190h55.342a4.868 4.868 0 0 0 4.87-4.864V44.865A4.868 4.868 0 0 0 222.13 40H7.87A4.868 4.868 0 0 0 3 44.864V185.135A4.868 4.868 0 0 0 7.87 190h158.918ZM58.846 69.864H47.999a5.08 5.08 0 0 1-5.082-5.077V53.952a5.071 5.071 0 0 1 2.68-4.473 5.063 5.063 0 0 1 2.726-.791H59.17a5.08 5.08 0 0 1 5.082 5.076v10.833a5.076 5.076 0 0 1-2.692 4.483 5.062 5.062 0 0 1-2.714.784Zm19.86-20.986h10.847a5.077 5.077 0 0 1 5.082 5.074v10.835a5.072 5.072 0 0 1-2.368 4.293 5.062 5.062 0 0 1-2.714.784H78.706a5.077 5.077 0 0 1-5.079-5.077V53.952a5.07 5.07 0 0 1 5.08-5.074Zm30.71 0a5.076 5.076 0 0 0-5.082 5.074v10.835a5.078 5.078 0 0 0 5.082 5.077h10.844a5.08 5.08 0 0 0 5.082-5.077V53.952a5.078 5.078 0 0 0-5.082-5.074h-10.844Zm30.707 0a5.078 5.078 0 0 0-5.082 5.074v10.835a5.08 5.08 0 0 0 5.082 5.077h10.847a5.079 5.079 0 0 0 5.079-5.077V53.952a5.076 5.076 0 0 0-5.079-5.074h-10.847Zm41.554 132.434H170.83a5.08 5.08 0 0 1-5.082-5.076v-10.833a5.076 5.076 0 0 1 2.692-4.483 5.057 5.057 0 0 1 2.714-.784h10.847a5.08 5.08 0 0 1 5.082 5.077v10.835a5.072 5.072 0 0 1-2.68 4.473 5.063 5.063 0 0 1-2.726.791ZM170.83 48.878a5.078 5.078 0 0 0-5.082 5.074v10.835a5.08 5.08 0 0 0 5.082 5.077h10.847a5.08 5.08 0 0 0 5.082-5.077V53.952a5.078 5.078 0 0 0-5.082-5.074H170.83Zm30.707 111.446h10.847a5.08 5.08 0 0 1 5.082 5.079v10.833a5.068 5.068 0 0 1-2.265 4.225 5.057 5.057 0 0 1-2.817.851h-10.847a5.077 5.077 0 0 1-5.079-5.076v-10.833a5.078 5.078 0 0 1 5.079-5.079Zm0-111.446a5.075 5.075 0 0 0-5.079 5.074v10.835a5.077 5.077 0 0 0 5.079 5.077h10.847a5.08 5.08 0 0 0 5.082-5.077V53.952a5.078 5.078 0 0 0-5.082-5.074h-10.847Zm-50.243 132.244h-10.847a5.078 5.078 0 0 1-5.082-5.074v-10.835c0-1.807.945-3.394 2.368-4.293a5.057 5.057 0 0 1 2.714-.784h10.847a5.077 5.077 0 0 1 5.079 5.077v10.835a5.07 5.07 0 0 1-5.079 5.074Zm-30.71 0a5.076 5.076 0 0 0 5.082-5.074v-10.835a5.078 5.078 0 0 0-5.082-5.077H109.74a5.08 5.08 0 0 0-5.082 5.077v10.835a5.078 5.078 0 0 0 5.082 5.074h10.844Zm-30.707 0a5.078 5.078 0 0 0 5.082-5.074v-10.835a5.08 5.08 0 0 0-5.082-5.077H79.03a5.079 5.079 0 0 0-5.08 5.077v10.835a5.077 5.077 0 0 0 5.08 5.074h10.847Zm-30.707 0a5.078 5.078 0 0 0 5.082-5.074v-10.835a5.08 5.08 0 0 0-5.082-5.077H48.323a5.08 5.08 0 0 0-5.082 5.077v10.835a5.078 5.078 0 0 0 5.082 5.074H59.17ZM28.463 69.676H17.616a5.08 5.08 0 0 1-5.082-5.079V53.764c0-1.763.9-3.315 2.265-4.225a5.062 5.062 0 0 1 2.817-.851h10.847a5.077 5.077 0 0 1 5.079 5.076v10.833a5.076 5.076 0 0 1-5.08 5.079Zm0 111.446a5.075 5.075 0 0 0 5.079-5.074v-10.835a5.077 5.077 0 0 0-5.08-5.077H17.617a5.08 5.08 0 0 0-5.082 5.077v10.835a5.078 5.078 0 0 0 5.082 5.074h10.847Z" clip-rule="evenodd"/><path fill="#FFAB53" fill-rule="evenodd" d="M42.917 53.952a5.071 5.071 0 0 1 2.68-4.473 5.07 5.07 0 0 0-2.356 4.285v10.833a5.08 5.08 0 0 0 5.082 5.079H59.17c.864 0 1.677-.216 2.39-.596a5.062 5.062 0 0 1-2.714.784H47.999a5.08 5.08 0 0 1-5.082-5.077V53.952ZM61.56 69.08a5.076 5.076 0 0 0 2.692-4.483V53.764a5.08 5.08 0 0 0-5.082-5.076H48.323c-1.003 0-1.938.29-2.726.791a5.066 5.066 0 0 1 2.402-.6h10.847a5.077 5.077 0 0 1 5.082 5.073v10.835a5.072 5.072 0 0 1-2.368 4.293Zm12.067-15.128a5.07 5.07 0 0 1 2.686-4.477 5.072 5.072 0 0 0-2.362 4.289v10.833a5.079 5.079 0 0 0 5.08 5.079h10.846c.864 0 1.677-.216 2.39-.596a5.062 5.062 0 0 1-2.714.784H78.706a5.077 5.077 0 0 1-5.079-5.077V53.952ZM33.542 64.597a5.076 5.076 0 0 1-2.696 4.487 5.072 5.072 0 0 0 2.373-4.297V53.952a5.077 5.077 0 0 0-5.081-5.074H17.293c-.91 0-1.76.24-2.494.66a5.062 5.062 0 0 1 2.817-.85h10.847a5.077 5.077 0 0 1 5.079 5.076v10.833ZM170.83 181.312h10.847c1.003 0 1.938-.29 2.726-.791a5.072 5.072 0 0 0 2.68-4.473v-10.835a5.08 5.08 0 0 0-5.082-5.077h-10.847c-.998 0-1.929.287-2.714.784a5.076 5.076 0 0 0-2.692 4.483v10.833a5.08 5.08 0 0 0 5.082 5.076Zm-4.758-16.099c0-1.807.945-3.394 2.368-4.293a5.065 5.065 0 0 1 2.39-.596h10.847a5.08 5.08 0 0 1 5.082 5.079v10.833c0 1.801-.94 3.384-2.356 4.285a5.073 5.073 0 0 1-2.402.601h-10.847a5.078 5.078 0 0 1-5.082-5.074v-10.835Zm46.312 16.099a5.057 5.057 0 0 0 2.817-.851 5.002 5.002 0 0 1-2.494.661h-10.845a5.077 5.077 0 0 1-5.081-5.074v-10.835c0-1.809.947-3.397 2.373-4.297a5.078 5.078 0 0 0-2.696 4.487v10.833a5.077 5.077 0 0 0 5.079 5.076h10.847Zm-71.937-21.176c-.998 0-1.929.287-2.714.784a5.065 5.065 0 0 1 2.39-.596h10.847a5.08 5.08 0 0 1 5.079 5.079v10.833a5.073 5.073 0 0 1-2.362 4.289 5.07 5.07 0 0 0 2.686-4.477v-10.835a5.077 5.077 0 0 0-5.079-5.077h-10.847Z" clip-rule="evenodd"/><path fill="#E34400" d="m76.313 49.475.268.422-.268-.422Zm61.42 111.445.235.441-.235-.441ZM30.846 69.084l-.267-.423.267.423ZM14.799 49.539l.248.434-.248-.434Zm33.2-.16h10.847v-1H47.999v1Zm10.847 0a4.577 4.577 0 0 1 4.582 4.573h1c0-3.08-2.5-5.574-5.582-5.574v1Zm4.582 4.573v10.835h1V53.952h-1Zm-4.582 15.412H47.999v1h10.847v-1Zm-10.847 0a4.58 4.58 0 0 1-4.582-4.577h-1A5.58 5.58 0 0 0 48 70.364v-1Zm-4.582-4.577V53.952h-1v10.835h1Zm46.136 4.577H78.706v1h10.847v-1Zm-10.847 0c-2.53 0-4.579-2.05-4.579-4.577h-1a5.577 5.577 0 0 0 5.58 5.577v-1Zm-4.579-4.577V53.952h-1v10.835h1Zm96.703 96.037h10.847v-1H170.83v1Zm10.847 0a4.58 4.58 0 0 1 4.582 4.579h1a5.58 5.58 0 0 0-5.582-5.579v1Zm4.582 4.579v10.833h1v-10.833h-1Zm-4.582 15.409H170.83v1h10.847v-1Zm-10.847 0a4.579 4.579 0 0 1-4.582-4.576h-1a5.58 5.58 0 0 0 5.582 5.576v-1Zm-4.582-4.576v-10.833h-1v10.833h1Zm46.136 4.576h-10.847v1h10.847v-1Zm-10.847 0a4.577 4.577 0 0 1-4.579-4.576h-1a5.577 5.577 0 0 0 5.579 5.576v-1Zm-4.579-4.576v-10.833h-1v10.833h1ZM17.293 49.378h10.845v-1H17.293v1Zm10.845 0a4.577 4.577 0 0 1 4.58 4.574h1c0-3.08-2.499-5.574-5.58-5.574v1Zm4.58 4.574v10.835h1V53.952h-1Zm-4.58 15.412h-4.671v1h4.67v-1Zm88.039 91.46h4.083v-1h-4.083v1Zm4.083 0a4.58 4.58 0 0 1 4.582 4.579h1a5.58 5.58 0 0 0-5.582-5.579v1Zm4.582 4.579v.795h1v-.795h-1Zm10.699 6.724v-6.724h-1v6.724h1Zm4.582-11.303h10.847v-1h-10.847v1Zm10.847 0a4.579 4.579 0 0 1 4.579 4.579h1a5.58 5.58 0 0 0-5.579-5.579v1Zm4.579 4.579v10.833h1v-10.833h-1Zm-4.579 15.409h-.088v1h.088v-1Zm31.031-.19h-10.847v1h10.847v-1Zm-10.847 0a4.578 4.578 0 0 1-4.582-4.574h-1c0 3.08 2.5 5.574 5.582 5.574v-1Zm-4.582-4.574v-10.835h-1v10.835h1Zm4.582-15.412h10.847v-1h-10.847v1Zm10.847 0a4.58 4.58 0 0 1 4.582 4.577h1a5.58 5.58 0 0 0-5.582-5.577v1Zm4.582 4.577v10.835h1v-10.835h-1Zm-46.136-4.577h10.847v-1h-10.847v1Zm10.847 0a4.577 4.577 0 0 1 4.579 4.577h1a5.578 5.578 0 0 0-5.579-5.577v1Zm4.579 4.577v10.835h1v-10.835h-1ZM59.17 69.176H48.323v1H59.17v-1Zm-10.847 0a4.58 4.58 0 0 1-4.582-4.579h-1a5.58 5.58 0 0 0 5.582 5.579v-1Zm-4.582-4.579V53.764h-1v10.833h1Zm4.582-15.409H59.17v-1H48.323v1Zm10.847 0a4.58 4.58 0 0 1 4.582 4.576h1a5.58 5.58 0 0 0-5.582-5.576v1Zm4.582 4.576v10.833h1V53.764h-1Zm-46.136-4.576h10.847v-1H17.616v1Zm10.847 0c2.53 0 4.579 2.049 4.579 4.576h1a5.577 5.577 0 0 0-5.58-5.576v1Zm4.579 4.576v10.833h1V53.764h-1Zm179.665 126.858h-10.845v1h10.845v-1Zm-10.845 0a4.577 4.577 0 0 1-4.581-4.574h-1c0 3.08 2.5 5.574 5.581 5.574v-1Zm-4.581-4.574v-10.835h-1v10.835h1Zm4.581-15.412h4.671v-1h-4.671v1Zm-88.039-91.46h-4.083v1h4.083v-1Zm-23.946 0H79.03v1h10.847v-1Zm-10.847 0a4.579 4.579 0 0 1-4.58-4.579h-1a5.58 5.58 0 0 0 5.58 5.579v-1Zm-4.58-4.579V53.764h-1v10.833h1Zm4.58-15.409h.088v-1h-.088v1ZM7.87 190.5h214.26v-1H7.87v1ZM43.417 53.952c0-1.744.977-3.26 2.416-4.032l-.472-.881a5.571 5.571 0 0 0-2.944 4.913h1Zm2.448-4.05a4.563 4.563 0 0 1 2.458-.714v-1c-1.1 0-2.129.319-2.994.87l.536.843Zm17.887 14.695c0 1.75-.982 3.271-2.428 4.042l.471.883a5.576 5.576 0 0 0 2.957-4.925h-1Zm-2.46 4.06a4.562 4.562 0 0 1-2.446.707v1a5.562 5.562 0 0 0 2.98-.861l-.534-.845Zm12.835-14.705c0-1.747.979-3.265 2.422-4.036l-.472-.882a5.57 5.57 0 0 0-2.95 4.918h1ZM92 68.658a4.563 4.563 0 0 1-2.447.706v1a5.562 5.562 0 0 0 2.981-.861L92 68.658Zm74.248 96.745c0-1.75.982-3.271 2.428-4.042l-.471-.882a5.576 5.576 0 0 0-2.957 4.924h1Zm2.459-4.061a4.568 4.568 0 0 1 2.447-.706v-1a5.567 5.567 0 0 0-2.981.861l.534.845Zm17.876 14.706c0 1.744-.977 3.26-2.416 4.032l.472.881a5.571 5.571 0 0 0 2.944-4.913h-1Zm-2.448 4.051a4.569 4.569 0 0 1-2.458.713v1a5.556 5.556 0 0 0 2.994-.87l-.536-.843Zm12.823-14.696c0-1.753.983-3.275 2.431-4.045l-.47-.883a5.576 5.576 0 0 0-2.961 4.928h1Zm17.966 14.642a4.56 4.56 0 0 1-2.54.767v1a5.56 5.56 0 0 0 3.095-.935l-.555-.832Zm-59.051-3.997a4.57 4.57 0 0 1-2.422 4.036l.472.882a5.57 5.57 0 0 0 2.95-4.918h-1ZM138 161.342a4.568 4.568 0 0 1 2.447-.706v-1a5.567 5.567 0 0 0-2.981.861l.534.845ZM33.042 64.597a4.576 4.576 0 0 1-2.43 4.045l.469.883a5.576 5.576 0 0 0 2.961-4.928h-1ZM15.076 49.956a4.562 4.562 0 0 1 2.54-.767v-1a5.563 5.563 0 0 0-3.095.935l.555.832Zm171.183 126.281c0 1.623-.846 3.05-2.124 3.863l.536.843a5.568 5.568 0 0 0 2.588-4.706h-1Zm-172.634-125a4.66 4.66 0 0 1 1.422-1.263l-.497-.868a5.663 5.663 0 0 0-1.727 1.533l.802.598Zm1.422-1.263a4.504 4.504 0 0 1 2.246-.595v-1c-1 0-1.934.265-2.742.727l.496.868Zm17.672 14.814c0 1.63-.853 3.062-2.14 3.874l.534.846a5.573 5.573 0 0 0 2.606-4.72h-1Zm-2.14 3.874a4.56 4.56 0 0 1-2.441.703v1a5.56 5.56 0 0 0 2.975-.858l-.534-.845Zm185.796 110.103a4.66 4.66 0 0 1-1.422 1.263l.497.868a5.676 5.676 0 0 0 1.727-1.533l-.802-.598Zm-1.422 1.263a4.503 4.503 0 0 1-2.246.595v1c1 0 1.934-.265 2.743-.727l-.497-.868Zm-30.786.053a4.564 4.564 0 0 1-2.166.542v1c.953 0 1.852-.239 2.638-.661l-.472-.881Zm13.114-14.867c0-1.63.853-3.062 2.14-3.874l-.534-.845a5.572 5.572 0 0 0-2.606 4.719h1Zm2.14-3.874a4.563 4.563 0 0 1 2.441-.703v-1a5.558 5.558 0 0 0-2.975.858l.534.845Zm-43.872 14.897a4.573 4.573 0 0 1-2.13 3.867l.536.844a5.57 5.57 0 0 0 2.594-4.711h-1Zm-2.13 3.867a4.557 4.557 0 0 1-2.449.709v1a5.555 5.555 0 0 0 2.985-.865l-.536-.844ZM61.324 68.639a4.563 4.563 0 0 1-2.154.537v1c.948 0 1.842-.237 2.625-.654l-.47-.883Zm13.127-14.875c0-1.626.849-3.054 2.13-3.867l-.536-.844a5.572 5.572 0 0 0-2.594 4.71h1Zm2.13-3.867a4.558 4.558 0 0 1 2.45-.709v-1a5.557 5.557 0 0 0-2.986.865l.536.844Zm-32.84 3.867a4.57 4.57 0 0 1 2.124-3.863l-.536-.844a5.57 5.57 0 0 0-2.588 4.707h1Zm91.8 111.639c0-1.75.982-3.271 2.427-4.042l-.47-.882a5.576 5.576 0 0 0-2.957 4.924h1Zm2.427-4.042a4.569 4.569 0 0 1 2.155-.537v-1c-.948 0-1.842.237-2.625.655l.47.882Zm-74.54-96.574c0 1.628-.851 3.059-2.136 3.87l.535.846a5.572 5.572 0 0 0 2.6-4.716h-1Zm105.248 96.574a4.562 4.562 0 0 1 2.154-.537v-1c-.948 0-1.842.237-2.625.655l.471.882Zm-2.104 3.852c0-1.628.851-3.059 2.135-3.871l-.534-.845a5.573 5.573 0 0 0-2.601 4.716h1ZM94.459 64.598c0 1.75-.982 3.27-2.428 4.041l.471.883a5.576 5.576 0 0 0 2.957-4.925h-1Zm-2.428 4.041a4.564 4.564 0 0 1-2.154.537v1c.948 0 1.842-.237 2.625-.654l-.47-.883ZM45.833 49.92A4.565 4.565 0 0 1 48 49.378v-1c-.953 0-1.852.24-2.638.66l.473.882ZM166.788 190v-1 1ZM7.87 190v1-1ZM78.706 49.878h10.847v-2H78.706v2Zm10.847 0a4.077 4.077 0 0 1 4.082 4.074h2a6.077 6.077 0 0 0-6.082-6.074v2Zm4.082 4.074v10.835h2V53.952h-2Zm11.699 0a4.076 4.076 0 0 1 4.082-4.074v-2a6.076 6.076 0 0 0-6.082 6.074h2Zm4.082-4.074h10.844v-2h-10.844v2Zm10.844 0a4.077 4.077 0 0 1 4.082 4.074h2a6.077 6.077 0 0 0-6.082-6.074v2Zm4.082 4.074v10.835h2V53.952h-2Zm0 10.835a4.08 4.08 0 0 1-4.082 4.077v2a6.08 6.08 0 0 0 6.082-6.077h-2Zm-4.082 4.077h-10.844v2h10.844v-2Zm-10.844 0a4.078 4.078 0 0 1-4.082-4.077h-2a6.078 6.078 0 0 0 6.082 6.077v-2Zm-4.082-4.077V53.952h-2v10.835h2Zm30.707-10.835a4.077 4.077 0 0 1 4.082-4.074v-2a6.077 6.077 0 0 0-6.082 6.074h2Zm4.082-4.074h10.847v-2h-10.847v2Zm10.847 0a4.076 4.076 0 0 1 4.079 4.074h2a6.077 6.077 0 0 0-6.079-6.074v2Zm4.079 4.074v10.835h2V53.952h-2Zm0 10.835a4.079 4.079 0 0 1-4.079 4.077v2a6.08 6.08 0 0 0 6.079-6.077h-2Zm-4.079 4.077h-10.847v2h10.847v-2Zm-10.847 0a4.08 4.08 0 0 1-4.082-4.077h-2a6.08 6.08 0 0 0 6.082 6.077v-2Zm-4.082-4.077V53.952h-2v10.835h2Zm30.707-10.835a4.077 4.077 0 0 1 4.082-4.074v-2a6.077 6.077 0 0 0-6.082 6.074h2Zm4.082-4.074h10.847v-2H170.83v2Zm10.847 0a4.077 4.077 0 0 1 4.082 4.074h2a6.077 6.077 0 0 0-6.082-6.074v2Zm4.082 4.074v10.835h2V53.952h-2Zm0 10.835a4.08 4.08 0 0 1-4.082 4.077v2a6.08 6.08 0 0 0 6.082-6.077h-2Zm-4.082 4.077H170.83v2h10.847v-2Zm-10.847 0a4.08 4.08 0 0 1-4.082-4.077h-2a6.08 6.08 0 0 0 6.082 6.077v-2Zm-4.082-4.077V53.952h-2v10.835h2Zm34.789 96.537h10.847v-2h-10.847v2Zm10.847 0a4.08 4.08 0 0 1 4.082 4.079h2a6.08 6.08 0 0 0-6.082-6.079v2Zm4.082 4.079v10.833h2v-10.833h-2Zm-19.008-111.45a4.075 4.075 0 0 1 4.079-4.075v-2a6.075 6.075 0 0 0-6.079 6.074h2Zm4.079-4.075h10.847v-2h-10.847v2Zm10.847 0a4.077 4.077 0 0 1 4.082 4.074h2a6.077 6.077 0 0 0-6.082-6.074v2Zm4.082 4.074v10.835h2V53.952h-2Zm0 10.835a4.08 4.08 0 0 1-4.082 4.077v2a6.08 6.08 0 0 0 6.082-6.077h-2Zm-4.082 4.077h-10.847v2h10.847v-2Zm-10.847 0a4.077 4.077 0 0 1-4.079-4.077h-2a6.077 6.077 0 0 0 6.079 6.077v-2Zm-4.079-4.077V53.952h-2v10.835h2ZM166.788 191h55.342v-2h-55.342v2Zm55.342 0a5.867 5.867 0 0 0 5.87-5.864h-2a3.868 3.868 0 0 1-3.87 3.864v2ZM228 44.865A5.868 5.868 0 0 0 222.13 39v2c2.137 0 3.87 1.73 3.87 3.865h2Zm-76.706 135.257h-10.847v2h10.847v-2Zm-10.847 0a4.077 4.077 0 0 1-4.082-4.074h-2a6.078 6.078 0 0 0 6.082 6.074v-2Zm-4.082-4.074v-10.835h-2v10.835h2Zm-11.699 0a4.076 4.076 0 0 1-4.082 4.074v2a6.076 6.076 0 0 0 6.082-6.074h-2Zm-4.082 4.074H109.74v2h10.844v-2Zm-10.844 0a4.077 4.077 0 0 1-4.082-4.074h-2a6.078 6.078 0 0 0 6.082 6.074v-2Zm-4.082-4.074v-10.835h-2v10.835h2Zm0-10.835a4.08 4.08 0 0 1 4.082-4.077v-2a6.08 6.08 0 0 0-6.082 6.077h2Zm4.082-4.077h10.844v-2H109.74v2Zm10.844 0a4.078 4.078 0 0 1 4.082 4.077h2a6.078 6.078 0 0 0-6.082-6.077v2Zm4.082 4.077v10.835h2v-10.835h-2Zm-30.707 10.835a4.077 4.077 0 0 1-4.082 4.074v2a6.078 6.078 0 0 0 6.082-6.074h-2Zm-4.082 4.074H79.03v2h10.847v-2Zm-10.847 0a4.077 4.077 0 0 1-4.08-4.074h-2a6.077 6.077 0 0 0 6.08 6.074v-2Zm-4.08-4.074v-10.835h-2v10.835h2Zm0-10.835a4.08 4.08 0 0 1 4.08-4.077v-2a6.079 6.079 0 0 0-6.08 6.077h2Zm4.08-4.077h10.847v-2H79.03v2Zm10.847 0a4.08 4.08 0 0 1 4.082 4.077h2a6.08 6.08 0 0 0-6.082-6.077v2Zm4.082 4.077v10.835h2v-10.835h-2Zm-30.707 10.835a4.077 4.077 0 0 1-4.082 4.074v2a6.078 6.078 0 0 0 6.082-6.074h-2Zm-4.082 4.074H48.323v2H59.17v-2Zm-10.847 0a4.077 4.077 0 0 1-4.082-4.074h-2a6.078 6.078 0 0 0 6.082 6.074v-2Zm-4.082-4.074v-10.835h-2v10.835h2Zm0-10.835a4.08 4.08 0 0 1 4.082-4.077v-2a6.08 6.08 0 0 0-6.082 6.077h2Zm4.082-4.077H59.17v-2H48.323v2Zm10.847 0a4.08 4.08 0 0 1 4.082 4.077h2a6.08 6.08 0 0 0-6.082-6.077v2Zm4.082 4.077v10.835h2v-10.835h-2Zm-34.79-96.537H17.617v2h10.847v-2Zm-10.846 0a4.08 4.08 0 0 1-4.082-4.079h-2a6.08 6.08 0 0 0 6.082 6.079v-2Zm-4.082-4.079V53.764h-2v10.833h2Zm19.008 111.451a4.075 4.075 0 0 1-4.08 4.074v2a6.075 6.075 0 0 0 6.08-6.074h-2Zm-4.08 4.074H17.617v2h10.847v-2Zm-10.846 0a4.078 4.078 0 0 1-4.082-4.074h-2a6.078 6.078 0 0 0 6.082 6.074v-2Zm-4.082-4.074v-10.835h-2v10.835h2Zm0-10.835a4.08 4.08 0 0 1 4.082-4.077v-2a6.08 6.08 0 0 0-6.082 6.077h2Zm4.082-4.077h10.847v-2H17.616v2Zm10.847 0a4.078 4.078 0 0 1 4.079 4.077h2a6.077 6.077 0 0 0-6.08-6.077v2Zm4.079 4.077v10.835h2v-10.835h-2ZM7.87 39A5.868 5.868 0 0 0 2 44.864h2A3.868 3.868 0 0 1 7.87 41v-2ZM2 185.135A5.868 5.868 0 0 0 7.87 191v-2A3.868 3.868 0 0 1 4 185.135H2ZM222.13 39H115v2h107.13v-2ZM115 39H7.87v2H115v-2ZM7.87 191h158.918v-2H7.87v2ZM76.784 50.357a4.063 4.063 0 0 1 1.922-.479v-2c-1.033 0-2.01.258-2.864.715l.942 1.764Zm16.85 14.43c0 1.45-.756 2.724-1.902 3.448l1.07 1.69a6.072 6.072 0 0 0 2.833-5.138h-2Zm105.99 97.012a4.054 4.054 0 0 1 1.913-.475v-2a6.055 6.055 0 0 0-2.852.71l.939 1.765Zm16.842 14.437a4.07 4.07 0 0 1-1.819 3.393l1.109 1.664a6.07 6.07 0 0 0 2.71-5.057h-2Zm-63.25 3.407a4.07 4.07 0 0 1-1.922.479v2c1.033 0 2.01-.259 2.864-.715l-.942-1.764Zm-16.851-14.43c0-1.45.757-2.724 1.903-3.448l-1.069-1.691a6.073 6.073 0 0 0-2.834 5.139h2ZM30.376 68.201a4.06 4.06 0 0 1-1.913.475v2a6.06 6.06 0 0 0 2.852-.71l-.939-1.765ZM13.534 53.764c0-1.414.72-2.66 1.82-3.393l-1.11-1.664a6.07 6.07 0 0 0-2.71 5.057h2ZM2 44.864V61h2V44.864H2ZM2 61v124.135h2V61H2Zm226 124.136V152h-2v33.136h2ZM228 152V44.865h-2V152h2Z" mask="url(#a)"/><path fill="#fff" fill-rule="evenodd" d="M186.439 175.048a5.078 5.078 0 0 1-2.656 4.473 5.082 5.082 0 0 0 2.335-4.285v-10.833c0-2.806-2.255-5.079-5.037-5.079h-10.749c-.856 0-1.663.216-2.369.596a4.98 4.98 0 0 1 2.69-.784h10.75c2.781 0 5.036 2.273 5.036 5.077v10.835Zm-21.144-10.645a5.083 5.083 0 0 1 2.668-4.483 5.082 5.082 0 0 0-2.347 4.293v10.835c0 2.803 2.255 5.074 5.037 5.074h10.75c.861 0 1.672-.218 2.38-.601a4.982 4.982 0 0 1-2.702.791h-10.749c-2.782 0-5.037-2.273-5.037-5.076v-10.833Zm-9.291 10.645a5.078 5.078 0 0 1-2.662 4.477 5.085 5.085 0 0 0 2.341-4.289v-10.833c0-2.806-2.256-5.079-5.034-5.079h-10.75c-.856 0-1.663.216-2.369.596a4.98 4.98 0 0 1 2.69-.784h10.75c2.781 0 5.034 2.273 5.034 5.077v10.835Zm-91.3-111.45a5.082 5.082 0 0 1-2.667 4.482 5.083 5.083 0 0 0 2.347-4.293V52.952c0-2.803-2.255-5.074-5.037-5.074h-10.75c-.86 0-1.671.218-2.38.601a4.985 4.985 0 0 1 2.702-.791h10.75c2.78 0 5.036 2.273 5.036 5.076v10.833ZM43.562 52.951a5.078 5.078 0 0 1 2.656-4.473 5.082 5.082 0 0 0-2.335 4.285v10.833c0 2.806 2.255 5.079 5.037 5.079h10.75c.855 0 1.662-.216 2.368-.596-.778.497-1.7.784-2.69.784h-10.75c-2.781 0-5.036-2.273-5.036-5.077V52.952ZM34.27 63.597a5.082 5.082 0 0 1-2.672 4.487 5.083 5.083 0 0 0 2.352-4.297V52.952c0-2.803-2.255-5.074-5.036-5.074H18.165c-.902 0-1.743.24-2.472.66.8-.537 1.76-.85 2.793-.85h10.75c2.78 0 5.033 2.273 5.033 5.076v10.833Zm42.39-15.122a5.077 5.077 0 0 0-2.663 4.477v10.835c0 2.804 2.253 5.077 5.034 5.077h10.75c.99 0 1.912-.287 2.69-.784a4.983 4.983 0 0 1-2.369.596h-10.75c-2.778 0-5.034-2.273-5.034-5.079V52.764c0-1.804.935-3.389 2.342-4.289Zm121.744 111.441a5.084 5.084 0 0 0-2.672 4.487v10.833c0 2.803 2.252 5.076 5.034 5.076h10.749a4.983 4.983 0 0 0 2.793-.851c-.728.42-1.57.661-2.472.661h-10.748c-2.781 0-5.036-2.271-5.036-5.074v-10.835c0-1.809.939-3.397 2.352-4.297Z" clip-rule="evenodd"/><path fill="#FF8116" fill-rule="evenodd" d="M166.326 189h54.847c2.665 0 4.827-2.177 4.827-4.864V151C106.546 165.802 24.284 144.5 4 60v124.135C4 186.823 6.162 189 8.827 189h157.499Zm14.755-8.688h-10.749c-2.782 0-5.037-2.273-5.037-5.076v-10.833a5.083 5.083 0 0 1 2.668-4.483 4.98 4.98 0 0 1 2.69-.784h10.75c2.781 0 5.036 2.273 5.036 5.077v10.835a5.078 5.078 0 0 1-2.656 4.473 4.982 4.982 0 0 1-2.702.791Zm19.684-20.988h10.749c2.782 0 5.037 2.273 5.037 5.079v10.833a5.082 5.082 0 0 1-2.244 4.225 4.983 4.983 0 0 1-2.793.851h-10.749c-2.782 0-5.034-2.273-5.034-5.076v-10.833a5.084 5.084 0 0 1 2.672-4.487 4.989 4.989 0 0 1 2.362-.592Zm-49.795 20.798h-10.75c-2.782 0-5.037-2.271-5.037-5.074v-10.835c0-1.807.937-3.394 2.347-4.293a4.98 4.98 0 0 1 2.69-.784h10.75c2.781 0 5.034 2.273 5.034 5.077v10.835a5.078 5.078 0 0 1-2.662 4.477 4.986 4.986 0 0 1-2.372.597Zm-30.436 0c2.784 0 5.037-2.271 5.037-5.074v-10.835c0-2.804-2.253-5.077-5.037-5.077h-10.747c-2.781 0-5.037 2.273-5.037 5.077v10.835c0 2.803 2.256 5.074 5.037 5.074h10.747Zm-30.433 0c2.782 0 5.037-2.271 5.037-5.074v-10.835c0-2.804-2.255-5.077-5.037-5.077h-10.75c-2.778 0-5.034 2.273-5.034 5.077v10.835c0 2.803 2.256 5.074 5.034 5.074h10.75Zm-30.433 0c2.782 0 5.037-2.271 5.037-5.074v-10.835c0-2.804-2.255-5.077-5.037-5.077h-10.75c-2.781 0-5.036 2.273-5.036 5.077v10.835c0 2.803 2.255 5.074 5.037 5.074h10.75Zm-30.433 0c2.782 0 5.034-2.271 5.034-5.074v-10.835c0-2.804-2.252-5.077-5.034-5.077h-10.75c-2.78 0-5.036 2.273-5.036 5.077v10.835c0 2.803 2.255 5.074 5.037 5.074h10.75Z" clip-rule="evenodd"/><path fill="#fff" d="M96.963 93c-.682 5.4-.963 10.321-.963 15.126 0 2.498.076 4.966.21 7.454.295 5.425.87 10.947 1.548 17.092 16.128-4.35 26.874-12.363 35.378-22.265-.622-.467-1.239-.923-1.852-1.368C119.63 100.594 109.28 96.13 96.964 93Z"/><path fill="#FF7500" d="M132.661 110.694c-8.594 10.064-17.661 16.655-33.905 21.771l-1.06-1.153c.099.913.2 1.838.304 2.778 17.37-4.627 26.905-12.439 36-23.09-.619-.468-1.235-.925-1.847-1.371l.508 1.065Z"/><path fill="#FF7500" d="M133.136 110.407c-.622-.467-1.239-.923-1.852-1.368-2.151 2.093-4.462 4-6.978 5.62-5.28 3.402-11.592 5.484-17.85 4.879-3.681-.357-7.31-1.737-10.245-3.958.294 5.425.868 10.947 1.547 17.092 16.128-4.35 26.874-12.363 35.378-22.265Z"/></svg>