<svg xmlns="http://www.w3.org/2000/svg" width="230" height="230" fill="none"><path fill="#fff" d="M186.982 136.414c-.573.298-1.172.551-1.793.755-2.421.785-5.166.718-7.402-.495-2.236-1.209-4.01-3.671-3.969-6.219-2.392 1.689-5.992 1.365-8.061-.703-1.238-1.25-1.845-3.065-1.744-4.824.056-1.154.42-2.295 1.097-3.237 1.689-2.391 5.122-3.21 7.752-1.926.171-4.743 3.757-9.177 8.373-10.3 1.674-.421 3.445-.38 5.118.033-.68-24.81-1.636-48.84-2.867-61.427-18.744-1.417-39.589-1.897-59.482-1.897-33.928.004-65.08 1.395-78.356 1.912-1.856 18.982-3.083 63.938-3.682 98.371l-.09 5.371c-.163 10.36-.267 19.507-.308 26.336-.008 1.231-.011 2.388-.015 3.463 16.635 1.819 44.87 2.961 72.556 3.165 2.946.023 5.889.034 8.812.034 7.466 0 14.801-.074 21.753-.223 16.865-.361 31.487-1.172 40.333-2.504a67.003 67.003 0 0 0 2.578-.435c-.03-9.85-.235-26.611-.603-45.25Z"/><path fill="#75CE9E" d="M164.857 141.715c-.591-1.38-1.183-2.76-1.845-4.111-.814-1.674-1.729-3.306-2.882-4.768-2.083-2.634-5.093-4.743-8.444-4.955-6.26-.405-10.917 5.472-14.209 10.806a298.641 298.641 0 0 0-13.339 23.932 542.157 542.157 0 0 1-9.962-18.74 563.37 563.37 0 0 1-5.207-10.578 508.84 508.84 0 0 1-9.229-20.265c-1.8-4.178-3.59-8.455-6.416-12.041-2.448-3.11-5.84-5.672-9.653-6.487a12.703 12.703 0 0 0-1.8-.253c-8.51-.55-14.83 7.458-19.305 14.689a415.45 415.45 0 0 0-20.6 37.513l-.09 5.371c-.163 10.36-.267 19.507-.308 26.336-.008 1.231-.011 2.388-.015 3.463 16.635 1.819 44.87 2.961 72.556 3.165 2.946.023 5.889.034 8.812.034 7.466 0 14.801-.074 21.753-.223 16.865-.361 31.488-1.172 40.333-2.504a401.22 401.22 0 0 1-20.15-40.384Z"/><path fill="#F9AB42" d="M175.689 87.805c-2.213-.294-4.352-.275-6.576-.141-1.06.067-1.079 1.633 0 1.662 2.287.064 4.474.004 6.729-.375.714-.12.431-1.068-.153-1.146ZM125.674 89.326c1.075-.03 1.064-1.595 0-1.662-2.228-.134-4.367-.153-6.576.141-.581.078-.874 1.027-.157 1.146 2.258.379 4.442.439 6.733.375ZM146.508 110.16c-.063 2.292-.004 4.475.376 6.733.119.71 1.067.428 1.145-.156.298-2.21.272-4.352.142-6.577-.067-1.06-1.633-1.075-1.663 0ZM148.171 66.722c.134-2.228.156-4.364-.142-6.577-.078-.58-1.026-.874-1.145-.156-.38 2.258-.439 4.441-.376 6.733.03 1.075 1.596 1.064 1.663 0ZM139.433 108.862c-.573 1.008-1.279 2.106-1.458 3.27-.108.692.681 1.019 1.105.465.714-.934 1.015-2.206 1.343-3.318.174-.588-.685-.949-.99-.417ZM131.793 104.413c-.699.625-1.347 1.306-1.484 2.266-.082.565.476.896.93.539.338-.264.606-.547.855-.9.223-.313.435-.632.674-.93.546-.684-.298-1.581-.975-.975ZM127.329 99.548c-.97.301-2.172.737-2.533 1.793-.134.398.216.736.584.766 1.031.075 1.912-.87 2.515-1.581.357-.416.03-1.16-.566-.978ZM124.796 93.827c-.424-.056-.822-.149-1.257-.149-.472-.003-.844.104-1.261.309-.55.272-.338 1.045.16 1.22.874.305 1.663.022 2.522-.193.71-.183.469-1.109-.164-1.187ZM155.595 108.862c-.301-.528-1.168-.175-.993.417.328 1.112.633 2.384 1.343 3.318.42.55 1.216.23 1.108-.465-.182-1.165-.885-2.262-1.458-3.27ZM163.232 104.413c-.673-.606-1.521.291-.975.975.242.298.454.617.674.93.249.353.517.636.859.9.454.357 1.008.026.926-.539-.134-.96-.785-1.641-1.484-2.266ZM167.699 99.548c-.599-.182-.922.562-.569.978.606.711 1.484 1.656 2.515 1.581.368-.03.721-.368.584-.766-.361-1.06-1.559-1.492-2.53-1.793ZM172.747 93.987c-.417-.205-.789-.312-1.261-.309-.431 0-.833.093-1.257.15-.625.077-.878 1.003-.16 1.186.855.215 1.644.498 2.518.193.498-.175.714-.948.16-1.22ZM139.433 67.715c.302.528 1.164.174.99-.42-.328-1.11-.629-2.381-1.343-3.315-.42-.55-1.213-.23-1.105.465.179 1.164.885 2.262 1.458 3.27ZM131.793 72.163c.673.607 1.521-.29.975-.974-.239-.298-.451-.617-.674-.93a4.1 4.1 0 0 0-.855-.9c-.454-.357-1.012-.026-.93.54.137.959.785 1.64 1.484 2.264ZM127.329 77.025c.596.186.923-.558.566-.974-.603-.71-1.484-1.656-2.515-1.577-.368.026-.718.364-.584.762.361 1.057 1.563 1.492 2.533 1.79ZM122.278 82.59c.417.204.789.312 1.261.309.435 0 .833-.093 1.257-.15.629-.077.882-1.003.164-1.186-.859-.216-1.648-.498-2.522-.193-.498.17-.71.948-.16 1.22ZM155.595 67.715c.573-1.008 1.276-2.106 1.458-3.27.105-.692-.684-1.019-1.108-.465-.711.934-1.016 2.206-1.343 3.315-.171.591.688.952.993.42ZM163.232 72.163c.699-.624 1.35-1.305 1.484-2.265.082-.565-.472-.896-.926-.54-.342.265-.61.548-.859.901-.22.313-.432.632-.674.93-.546.684.302 1.58.975.975ZM167.699 77.025c.971-.297 2.169-.732 2.53-1.789.137-.398-.216-.736-.584-.762-1.027-.079-1.912.866-2.515 1.577-.353.416-.03 1.16.569.974ZM170.228 82.75c.425.056.826.149 1.258.149.472.003.844-.105 1.261-.31.554-.27.342-1.044-.16-1.22-.874-.304-1.663-.022-2.518.194-.715.183-.473 1.109.159 1.187ZM165.884 81.117c-3.05-6.803-10.177-11.58-18.48-11.58-11.129 0-20.131 8.53-20.131 19.057 0 1.428.175 2.853.477 4.177 2.027 8.525 10.05 14.879 19.654 14.879 11.104 0 20.105-8.526 20.105-19.056 0-2.649-.572-5.174-1.625-7.477Z"/><path fill="#FFCC15" d="m40.966 182.624-.473-.052.004-.473c.019-7.201.134-18.275.342-31.145.566-35.188 1.834-83.816 3.806-103.43l.044-.453.461-.019c13-.502 44.503-1.93 78.854-1.93 20.068 0 41.107.487 60.003 1.93l.442.033.045.44c2.689 26.789 4.073 107.688 4.147 134.574v.436l-.424.081c-11.505 2.273-37.438 3.263-65.295 3.263-15.195 0-30.952-.294-45.22-.845-14.5-.558-27.463-1.376-36.736-2.41Zm168.271 2.73c-.461-43.762-2.202-126.853-5.207-157.388-24.331-1.841-51.399-2.466-77.229-2.466-36.226 0-70.015 1.227-90.414 2.03-4.43.18-8.224.332-11.278.451-3.434 34.887-5.215 138.246-5.327 173.36 23.843 2.619 66.196 4.159 105.61 4.159 35.713.004 69.056-1.268 83.965-4.121-.015-4.367-.056-9.798-.12-16.025Z"/><path fill="#97DCE5" d="M186.9 132.423c-.156-7.506-.338-15.251-.547-22.925-1.673-.413-3.444-.453-5.118-.033-4.616 1.123-8.202 5.557-8.373 10.3-2.63-1.284-6.063-.465-7.752 1.927-.677.941-1.041 2.083-1.097 3.236-.101 1.759.506 3.574 1.744 4.824 2.069 2.068 5.669 2.392 8.061.703-.041 2.548 1.733 5.011 3.969 6.219 2.236 1.213 4.981 1.28 7.402.495.621-.204 1.22-.457 1.793-.755-.026-1.32-.052-2.652-.082-3.991ZM101.455 58.304c-4.854-2.433-10.958-1.998-15.518.956-2.801-4.936-9.062-7.625-14.59-6.275-5.515 1.365-9.808 6.658-10.005 12.342-3.15-1.522-7.26-.55-9.285 2.306l-.14.212c-1.887 2.857-1.492 7.008.925 9.44 2.463 2.478 6.77 2.857 9.642.845-.06 3.054 2.068 5.992 4.739 7.443 2.69 1.447 5.981 1.533 8.864.592 2.901-.945 5.42-2.842 7.443-5.108.718 2.474 3.422 4.375 5.996 4.404 2.574.027 5.051-1.789 5.81-4.236 4.966.97 11.074-3.378 12.763-8.273l.014-.015a8.39 8.39 0 0 0 .309-1.123c1.068-5.334-2.098-11.062-6.967-13.51Z"/><path fill="#FFA331" d="M109.349 196.714c-10.925-2.57-21.709-6.416-31.648-11.68-14.499-.558-27.462-1.376-36.735-2.41l-.473-.052.004-.473c.019-7.201.134-18.275.342-31.145-11.122-18.747-15.191-41.467-14.518-63.424.629-20.317 4.959-40.262 10.066-60-4.43.18-8.224.332-11.278.451-3.434 34.887-5.215 138.246-5.327 173.36 23.843 2.619 66.196 4.159 105.61 4.159 35.713.004 69.056-1.268 83.965-4.121-.015-4.367-.056-9.798-.12-16.025-30.263 15.385-66.619 19.194-99.888 11.36Z"/><path fill="#61C58E" d="M83.671 94.508a12.703 12.703 0 0 0-1.8-.253c-8.51-.55-14.83 7.458-19.305 14.689a415.315 415.315 0 0 0-20.6 37.513l-.09 5.371c5.629-11.192 11.703-22.147 18.975-32.331 6.554-9.203 14.139-17.799 22.82-24.99ZM114.176 143.879c-3.756 7.611-9.314 14.381-15.983 19.655-11.23 8.894-25.368 13.707-39.648 14.846-5.666.45-11.338.346-16.977-.216-.008 1.231-.011 2.388-.015 3.463 16.635 1.819 44.87 2.961 72.556 3.165a311.508 311.508 0 0 1 10.029-22.173 542.157 542.157 0 0 1-9.962-18.74ZM163.012 137.604c2.322 8.753 1.86 18.249-1.461 26.678-3.281 8.328-9.337 15.519-16.877 20.321 16.865-.361 31.488-1.172 40.333-2.504a401.22 401.22 0 0 1-20.15-40.384c-.591-1.38-1.182-2.76-1.845-4.111Z"/><path fill="#85D7E3" d="M177.999 129.681c-.465-1.435-.424-3.332-1.774-3.965-.86-.394-1.842-.056-2.716.253-1.83.647-3.771 1.183-5.698.956-1.447-.182-2.898-.885-3.798-1.997-.101 1.759.506 3.574 1.744 4.824 2.069 2.068 5.669 2.392 8.061.703-.041 2.548 1.733 5.011 3.969 6.219 2.236 1.213 4.981 1.28 7.402.495.621-.204 1.22-.457 1.793-.755-.026-1.32-.052-2.652-.082-3.991-1.097.535-2.291.859-3.511.848-2.31-.015-4.672-1.395-5.39-3.59Z"/><path fill="#F89C2A" d="M142.253 96.472c-5.052.149-10.125-1.175-14.503-3.701 2.027 8.525 10.05 14.879 19.654 14.879 11.104 0 20.105-8.526 20.105-19.056 0-2.649-.572-5.174-1.625-7.477-.826 1.8-1.875 3.5-3.125 5.051-4.902 6.201-12.602 10.077-20.506 10.304Z"/><path fill="#85D7E3" d="M67.223 85.573c2.69 1.447 5.981 1.533 8.864.592 2.901-.945 5.42-2.842 7.443-5.108.718 2.474 3.422 4.375 5.996 4.404 2.574.027 5.051-1.789 5.81-4.236 4.966.97 11.074-3.378 12.763-8.273-3.069 2.11-6.994 3.11-10.457 1.841-2.983-1.097-5.456-3.757-8.637-3.797-2.295-.03-4.363 1.365-6.052 2.927-1.703 1.547-3.22 3.333-5.233 4.43-2.013 1.112-4.754 1.34-6.458-.197-1.956-1.77-1.915-5.234-4.166-6.625-1.294-.818-2.968-.647-4.43-.238-1.477.42-2.897 1.068-4.419 1.153a6.244 6.244 0 0 1-4.925-1.986 6.241 6.241 0 0 1-1.406-2.615c-1.886 2.857-1.491 7.008.926 9.44 2.463 2.478 6.77 2.857 9.642.845-.06 3.054 2.068 5.992 4.739 7.443Z"/></svg>