<svg xmlns="http://www.w3.org/2000/svg" width="230" height="230" fill="none"><path fill="#33296B" fill-rule="evenodd" d="M176.315 27.361c1.045 10.37 1.82 25.057 2.395 41.746l1.478 78.226c.178 20.585.227 39.32.263 52.517l.009 3.422c-22.333 9.861-94.302 13.288-126.613 0l-3.262-3.48.011-.009v-.143c.003-.9.004-1.831.004-2.794 0-9.402-.115-21.726-.244-35.58-.166-17.785-.356-38.093-.356-57.983 0-31.43.473-61.814 2.263-79.575l.015-.155.153-.034C66.042 20.503 89.143 19 112.408 19c23.265 0 46.68 1.503 60.918 4.519l.154.032.001.007.008-.016 2.826 3.82Z" clip-rule="evenodd"/><path fill="#A1C7FF" d="M122.292 200.083c-1.984 2.192-5.041 3.598-8.47 3.598-4.004 0-7.502-1.916-9.386-4.769-.939-1.423-1.478-3.078-1.478-4.845 0-.298.016-.591.046-.881.022-2.628 1.236-5.005 3.177-6.721 1.96-1.733 4.661-2.801 7.64-2.801 2.98 0 5.681 1.068 7.64 2.801 1.937 1.713 3.15 4.083 3.177 6.704.031.296.047.595.047.898 0 2.086-.752 4.017-2.032 5.595-.116.143-.237.283-.361.421Zm7.872-165.004-.026.2-.203-.013c-2.492-.158-9.307-.237-16.114-.237s-13.622.08-16.114.237l-.202.013-.026-.2c-.055-.424-.08-.865-.08-1.313 0-1.69.35-3.468.772-4.69l.046-.132.14-.012c2.249-.195 9.294-.54 16.905-.54 4.807 0 9.837.137 14.026.54l.138.013.046.13c.422 1.223.77 3.003.771 4.693 0 .446-.024.888-.079 1.31Zm46.978 142.754c-.035-9.157-.086-19.482-.175-30.404-4.912.114-9.9.067-14.843-.158.047 8.631.067 16.508.086 23.1v.142l-.129.057c-9.915 4.375-29.135 7.198-48.958 7.2-17.129-.001-34.694-2.111-47.065-7.197l-.135-.056v-.146c.003-.74.003-1.497.004-2.269 0-17.224-.494-42.143-.494-66.385 0-21.534.389-42.533 1.862-57.149l.016-.155.152-.034c11.202-2.482 28.132-3.72 45.195-3.72 17.064 0 34.252 1.238 45.97 3.72l.153.032.016.157c.7 6.938 1.253 15.315 1.689 24.505a373.608 373.608 0 0 1 13.144-.065c.65.008 1.299.018 1.949.03-.585-18.066-1.388-34.043-2.498-45.129-14.192-2.983-37.514-4.478-60.673-4.478-23.156 0-46.163 1.495-59.73 4.477-.069.69-.136 1.398-.2 2.124-1.61 17.978-2.045 47.137-2.045 77.251 0 10.113.05 20.336.12 30.281.174 24.841.48 47.944.48 63.282 0 .911 0 1.794-.003 2.649 14.933 6.101 38.349 8.658 61.39 8.656 13.372 0 26.62-.858 38.018-2.378 11.315-1.507 20.808-3.669 26.77-6.274-.016-5.968-.034-13.333-.066-21.666Z"/><path fill="#A1C7FF" d="M176.967 147.429c-4.912.114-9.9.067-14.843-.158l-1.638-78.198a373.608 373.608 0 0 1 13.144-.065c.65.008 1.299.018 1.949.03l1.388 78.391Z"/><path fill="#FFFBF5" d="M121.173 186.789c-1.877-1.661-4.477-2.693-7.352-2.693-2.737 0-5.224.935-7.076 2.457a10.67 10.67 0 0 0-.276.236c-1.878 1.662-3.032 3.948-3.032 6.47s1.154 4.808 3.032 6.47c1.877 1.661 4.477 2.693 7.352 2.692 2.875.001 5.475-1.031 7.352-2.692.21-.186.41-.379.6-.579 1.521-1.596 2.432-3.649 2.432-5.891 0-2.522-1.154-4.808-3.032-6.47Z"/><path fill="#fff" d="M129.578 31.258a14.015 14.015 0 0 0-.471-1.91c-4.138-.39-9.1-.524-13.844-.524-6.724 0-13.018.27-15.918.466-.31.02-.58.041-.81.06a15.014 15.014 0 0 0-.702 4.417c0 .36.017.714.053 1.055 2.669-.151 9.299-.226 15.935-.226 6.637 0 13.267.075 15.937.227.035-.34.052-.695.052-1.055 0-.837-.09-1.705-.232-2.51Z"/><path fill="#F9AB42" d="M120.79 73.146c-.017-.02-.024-.023-.011.008l.011-.008Z"/><path fill="#FFFBF5" d="M161.762 165.535a6710.34 6710.34 0 0 0-.072-18.283c-14.835-.705-29.237-3.017-39.942-7.42l-2.657-2.846.037-.026-.019-.007-.008-.136c-.625-11.338-1.085-18.513-1.085-26.106 0-9.205.676-19.014 2.547-37.577l.016-.156.152-.034c9.995-2.215 24.267-3.499 39.321-3.86-.434-9.111-.98-17.42-1.67-24.314-11.662-2.45-28.758-3.678-45.724-3.678-12.618 0-25.168.68-35.357 2.035-3.508.468-6.736 1.014-9.59 1.642-1.458 14.578-1.845 35.497-1.845 56.948 0 24.238.494 49.154.494 66.385 0 .722-.001 1.431-.003 2.125 12.272 5.012 29.737 7.112 46.766 7.111 19.689.002 38.813-2.808 48.651-7.106-.002-1.502-.007-3.069-.012-4.697Z"/><path fill="#FFFBF5" d="M161.69 147.252c-14.835-.705-29.237-3.017-39.942-7.42l-2.657-2.846.037-.026-.019-.007-.008-.136c-.625-11.338-1.085-18.513-1.085-26.106 0-9.205.676-19.014 2.547-37.577l.016-.156.152-.034c9.995-2.215 24.267-3.499 39.321-3.86l1.638 78.168Z"/><path fill="#759BFF" d="M99.31 23.467c19.534.346 43.219-.548 58.933 12.996 6.918 5.96 11.501 14.344 13.773 23.183a60.561 60.561 0 0 1 1.614 9.362c.65.008 1.299.019 1.949.03-.585-18.066-1.388-34.042-2.498-45.129-14.192-2.982-37.514-4.477-60.673-4.477-23.156 0-46.163 1.495-59.73 4.476-.069.69-.136 1.398-.2 2.124a324.811 324.811 0 0 1 46.831-2.565ZM51.03 199.496c14.933 6.1 38.349 8.657 61.39 8.656 13.372 0 26.62-.859 38.017-2.379 11.315-1.507 20.81-3.669 26.771-6.274-.016-5.968-.033-13.333-.066-21.666-12.846 8.91-26.739 16.269-41.884 19.863a81.525 81.525 0 0 1-12.605 1.966c-.116.143-.237.283-.361.421-1.984 2.192-5.041 3.599-8.47 3.599-4.004 0-7.502-1.917-9.386-4.77-10.47-1.731-20.41-5.798-28.563-12.574-12.547-10.424-19.696-26.106-23.315-41.996a143.554 143.554 0 0 1-2.005-10.778c.175 24.841.48 47.944.48 63.282 0 .912 0 1.795-.002 2.65Z"/><path fill="#FAD9FF" d="M79.63 142.854c-9.276-14.35-10.889-32.31-10.23-49.377a218.504 218.504 0 0 1 7.901-50.35c-3.507.466-6.736 1.013-9.59 1.64-1.457 14.578-1.845 35.499-1.845 56.949 0 24.239.494 49.155.494 66.386 0 .722 0 1.43-.003 2.125 12.272 5.012 29.737 7.112 46.766 7.111 19.69.002 38.813-2.808 48.653-7.106l-.013-4.697c-8.13 3.036-16.866 4.488-25.563 4.59-21.858.255-44.716-8.942-56.57-27.271ZM106.469 199.729c1.877 1.661 4.477 2.693 7.352 2.692 2.875.001 5.475-1.031 7.352-2.692.21-.186.41-.379.6-.579-2.129.143-4.28-.162-6.258-.98-4.713-1.94-8.078-6.608-8.77-11.617a10.67 10.67 0 0 0-.276.236c-1.878 1.662-3.032 3.948-3.032 6.47s1.154 4.808 3.032 6.47ZM113.821 34.597c6.637 0 13.267.074 15.936.225.036-.34.053-.694.053-1.054 0-.837-.09-1.704-.233-2.509-4.629 1.59-9.448 2.62-14.334 2.62-5.599 0-11.304-1.45-15.898-4.588-.31.02-.58.04-.81.06a15.012 15.012 0 0 0-.703 4.417c0 .36.018.714.053 1.054 2.67-.15 9.299-.225 15.936-.225Z"/><path fill="#F89C2A" d="m120.779 73.154.011-.008c-.017-.02-.024-.023-.011.008Z"/><path fill="#A1C7FF" d="M98.963 87C98.281 92.4 98 97.32 98 102.126c0 2.498.076 4.966.21 7.454.295 5.425.87 10.947 1.548 17.092 16.128-4.35 26.874-12.363 35.378-22.265-.622-.467-1.239-.923-1.852-1.368C121.63 94.594 111.28 90.13 98.964 87Z"/><path fill="#FAD9FF" d="M134.66 104.694c-8.593 10.064-17.66 16.655-33.904 21.771l-1.06-1.153c.099.913.2 1.838.304 2.778 17.37-4.627 26.905-12.439 36-23.09-.619-.468-1.235-.925-1.847-1.371l.507 1.065Z"/><path fill="#759BFF" d="M135.136 104.407c-.622-.467-1.239-.923-1.852-1.368-2.151 2.093-4.462 4-6.978 5.62-5.28 3.402-11.592 5.484-17.85 4.879-3.681-.357-7.31-1.737-10.245-3.958.294 5.425.868 10.947 1.547 17.092 16.128-4.35 26.874-12.363 35.378-22.265Z"/></svg>