<svg xmlns="http://www.w3.org/2000/svg" width="230" height="230" fill="none"><path fill="#33296B" d="M213.665 180.507c-.282-35.454-1.932-96.443-4.938-131.063a455.836 455.836 0 0 0-.528-5.659l-2.194-3.211-.002-.002v.002l-.186-.014C180.775 38.646 152.884 38 126.28 38c-45.544 0-87.319 1.893-104.564 2.559l-.195.008-.02.194c-3.565 35.47-5.4 108.174-5.5 143.811l-.001.203h.001l2.622 2.801c46.488 5.183 163.302 6.287 195.078 0-.007-2.22-.018-4.579-.036-7.069Z"/><path fill="#00DDF1" d="M100.21 79.259c-.682 5.4-.963 10.32-.963 15.126 0 2.498.076 4.966.21 7.453.295 5.426.869 10.947 1.548 17.092 16.128-4.35 26.874-12.362 35.377-22.265-.621-.467-1.238-.922-1.852-1.367-11.653-8.445-22.003-12.91-34.32-16.04Z"/><path fill="#00DDF1" d="M104.502 161.492c-29.253-.35-57.722-1.512-73.39-3.281.005-2.716.03-5.615.066-8.656.03-2.813.067-5.743.128-8.772.468-27.558 1.835-63.103 4.09-85.79l.79-.03.01-.1.195-.01c13.25-.51 50.652-1.962 89.558-1.962 22.72 0 45.955.495 65.193 1.964l.189.014.005.065c.266.019.533.04.796.06 2.274 22.877 3.647 58.833 4.108 86.489.044 2.574.074 5.068.104 7.483.037 3.255.061 6.351.068 9.245-14.016 2.801-53.631 3.741-91.91 3.281Zm106.532 16.056c-.278-35.451-1.927-96.506-4.935-131.124a460.602 460.602 0 0 0-.505-5.428c-24.978-1.902-52.784-2.544-79.314-2.544-45.362 0-86.985 1.878-104.35 2.55-.469 4.678-.906 9.998-1.314 15.79-2.152 30.557-3.472 74.278-3.958 106.345-.12 7.912-.189 15.114-.207 21.235 24.37 2.701 67.89 4.289 108.386 4.289 36.763 0 71.054-1.31 86.236-4.273-.007-2.152-.019-4.437-.039-6.84Z"/><path fill="#00DDF1" d="M113.762 131.548c-17.923 0-32.451-14.529-32.451-32.45 0-17.924 14.528-32.453 32.451-32.453 17.923 0 32.451 14.53 32.451 32.452 0 17.922-14.528 32.451-32.451 32.451Zm27.966-60.418c-5.766-5.766-13.303-9.76-21.725-11.094a39.769 39.769 0 0 0-6.241-.49A39.381 39.381 0 0 0 89.13 68.15a39.753 39.753 0 0 0-3.335 2.98c-7.157 7.157-11.584 17.044-11.584 27.966 0 10.923 4.427 20.808 11.584 27.966 7.158 7.158 17.045 11.585 27.967 11.585 10.923 0 20.809-4.427 27.966-11.585a39.626 39.626 0 0 0 3.485-3.981 39.373 39.373 0 0 0 8.1-23.985c0-.995-.037-1.98-.109-2.958-.721-9.743-4.969-18.504-11.476-25.009Z"/><path fill="#FFFAF3" d="M195.066 147.111c-27.454 3.204-55.257 4.758-83.06 4.758-7.791 0-15.583-.122-23.367-.365a764.568 764.568 0 0 1-42.821-2.536 45.366 45.366 0 0 1-.328 2.451c-1.252.573-3.262.106-4.399-.671a69.138 69.138 0 0 1-.194-2.227 736.836 736.836 0 0 1-8.437-.838 881.762 881.762 0 0 0-.06 8.007c15.38 1.701 43.078 2.826 71.608 3.175 6.243.076 12.525.115 18.725.115 31.359.002 60.689-1.005 72.394-3.274-.007-2.696-.03-5.573-.061-8.595ZM99.796 78.95l.032-.253.246.063c13.185 3.322 24.151 8.164 36.771 17.69l.191.145h-.002l.368.77.507 1.065c-8.593 10.064-19.488 18.215-35.899 22.586l-1.06-1.154-.333-.363-.002.002-.029-.261c-1.004-9.077-1.789-16.801-1.789-24.855 0-4.899.29-9.918.999-15.436Zm-8.662 42.776c5.791 5.79 13.79 9.372 22.628 9.372 8.837 0 16.837-3.582 22.629-9.372 5.792-5.792 9.372-13.792 9.372-22.629a31.862 31.862 0 0 0-6.684-19.577c-5.903-6.655-14.521-10.85-24.116-10.85-17.8 0-32.227 14.428-32.227 32.227 0 5.019 1.147 9.771 3.195 14.007a32.152 32.152 0 0 0 5.203 6.822Z"/><path fill="#FFFAF3" d="M113.762 59.096c1.815 0 3.603.12 5.353.355 13.46 1.8 24.803 10.294 30.567 22.025a39.591 39.591 0 0 1 5.056 19.421c0 21.967-17.808 39.776-39.775 39.776-12.712 0-24.03-5.963-31.312-15.244a39.845 39.845 0 0 1-9.89-26.332 39.838 39.838 0 0 1 4.104-17.67c6.525-13.23 20.148-22.331 35.897-22.331Zm-72.828 79.157c1.281-.571 3.569-.459 4.922-.094.048.749.09 1.478.124 2.192a617.578 617.578 0 0 0 30.555 2.727 621.222 621.222 0 0 0 39.786 1.277c26.282 0 52.565-1.667 78.633-5.004-.265-15.545-.826-33.753-1.683-50.656-.626-12.348-1.41-24-2.349-33.407-19.184-1.455-42.331-1.948-64.973-1.948-4.33 0-8.64.017-12.902.05-29.21.225-56.08 1.14-70.546 1.681-2.29.085-4.268.162-5.896.224-2.21 22.1-3.55 56.571-4.015 83.377 2.745.375 5.493.731 8.243 1.069.029-.496.062-.993.101-1.488Z"/><path fill="#F46B5A" d="M40.81 140.192a614.971 614.971 0 0 1-8.229-1.066 795.318 795.318 0 0 0-.083 5.31l-.033 2.795c2.797.294 5.597.572 8.4.835a68.636 68.636 0 0 1-.056-7.874ZM195.029 144.269c-.021-1.46-.043-2.949-.067-4.465a620.008 620.008 0 0 1-78.641 5.001c-23.49 0-46.981-1.334-70.32-3.998a62.38 62.38 0 0 1 .04 4.992c-.033.899-.09 1.8-.178 2.72a760.287 760.287 0 0 0 66.143 2.899c27.803 0 55.603-1.553 83.054-4.759l-.031-2.39Z"/><path fill="#1BE4FE" d="M31.178 149.554c.03-2.813.067-5.743.128-8.772.468-27.558 1.835-63.103 4.09-85.79l.79-.031.01-.1.196-.007c13.248-.511 50.652-1.964 89.558-1.964 22.72 0 45.956.496 65.193 1.964l.188.014.007.064.795.06c2.273 22.878 3.648 58.834 4.109 86.491.043 2.573.073 5.068.103 7.482.037 3.256.061 6.352.067 9.245-14.016 2.801-53.63 3.741-91.91 3.281-29.253-.35-57.722-1.511-73.39-3.281.006-2.715.03-5.614.066-8.656Zm169.223 12.245a1070.62 1070.62 0 0 0-.071-9.692c-.031-2.531-.064-5.145-.108-7.843-.484-28.991-1.923-66.682-4.307-90.664-50.97-3.928-128.392-1.365-157.79-.251-2.547.097-4.733.18-6.51.251-2.364 23.782-3.798 61.042-4.288 89.93a984.373 984.373 0 0 0-.134 9.196 946.544 946.544 0 0 0-.07 9.073c16.425 1.854 46.268 3.072 76.932 3.439 40.125.482 81.653-.502 96.346-3.439Z"/><path fill="#FFE1BA" d="M193.271 88.694c-.627-12.348-1.409-23.999-2.349-33.406-19.184-1.455-42.331-1.948-64.973-1.948-4.33 0-8.641.017-12.902.05a179.159 179.159 0 0 1 38.038 10.844c15.089 6.178 29.311 14.45 42.186 24.46ZM41.091 150.748a68.854 68.854 0 0 1-.194-2.227 736.819 736.819 0 0 1-8.437-.838 881.892 881.892 0 0 0-.06 8.007c15.38 1.701 43.078 2.826 71.608 3.175a99.441 99.441 0 0 1-15.369-7.361 764.557 764.557 0 0 1-42.821-2.536 45.567 45.567 0 0 1-.328 2.451c-1.252.573-3.262.106-4.399-.671ZM40.833 139.741c.029-.496.062-.993.1-1.488 1.282-.571 3.57-.459 4.923-.094.048.749.09 1.478.124 2.192a617.578 617.578 0 0 0 30.555 2.727 93.125 93.125 0 0 1-11.094-10.69c-18.292-20.846-26.809-49.88-22.94-77.317-2.29.085-4.268.162-5.896.224-2.21 22.099-3.55 56.571-4.015 83.377 2.745.376 5.493.731 8.243 1.069Z"/><path fill="#FFE1BA" d="M114.962 143.444c23.25 0 42.098-18.847 42.098-42.097 0-21.849-16.645-39.81-37.945-41.896 13.46 1.8 24.802 10.294 30.567 22.024a39.594 39.594 0 0 1 5.055 19.422c0 21.967-17.807 39.776-39.775 39.776-12.711 0-24.03-5.962-31.311-15.243a39.848 39.848 0 0 1-9.89-26.333 39.844 39.844 0 0 1 4.104-17.67 41.915 41.915 0 0 0-5 19.92c0 23.25 18.847 42.097 42.097 42.097Z"/><path fill="#FFE1BA" d="M137.909 98.43c-8.593 10.064-19.488 18.215-35.899 22.586l-1.06-1.154c.098.913.2 1.838.304 2.778 17.37-4.627 28.9-13.253 37.995-23.904-.619-.468-1.235-.925-1.848-1.371l.508 1.065Z"/><path fill="#1BE4FE" d="M122.627 41.788a1114.74 1114.74 0 0 1 83.473 4.635 442.447 442.447 0 0 0-.505-5.428c-24.978-1.901-52.785-2.544-79.315-2.544-45.361 0-86.985 1.878-104.35 2.55-.468 4.679-.906 9.999-1.314 15.791 31.38-14.325 67.355-15.625 102.011-15.004ZM211.073 184.388c-.007-2.152-.019-4.437-.039-6.84-48.978 8.619-99.357 9.266-148.533 1.831-16.197-2.445-33.188-6.255-45.843-16.242-.12 7.912-.189 15.114-.207 21.235 24.37 2.701 67.89 4.289 108.386 4.289 36.763 0 71.054-1.31 86.236-4.273Z"/><path fill="#F25745" d="M46.04 145.799c-.032.899-.089 1.8-.177 2.72a760.287 760.287 0 0 0 66.143 2.899c27.803 0 55.603-1.553 83.054-4.759l-.031-2.39a737.285 737.285 0 0 1-148.988 1.53ZM32.465 147.231c2.797.294 5.597.572 8.4.835-.059-.921-.1-1.845-.122-2.77-2.75-.271-5.498-.558-8.245-.86l-.033 2.795Z"/><path fill="#1BE4FE" d="M136.382 96.665c-.621-.467-1.238-.922-1.852-1.367-2.15 2.093-4.461 4-6.978 5.62-5.279 3.402-11.591 5.484-17.849 4.879-3.681-.357-7.31-1.737-10.245-3.959.294 5.426.868 10.947 1.547 17.092 16.128-4.35 26.874-12.362 35.377-22.265Z"/><path fill="#1BE4FE" d="M85.795 127.063c7.158 7.158 17.045 11.585 27.967 11.585 10.923 0 20.809-4.427 27.966-11.585a39.626 39.626 0 0 0 3.485-3.981c-6.672 7.173-15.959 11.949-25.731 12.9-13.283 1.29-27.053-4.542-35.375-14.983-7.248-9.083-10.254-21.581-7.296-32.819 2.028-7.714 6.585-14.384 12.319-20.029a39.753 39.753 0 0 0-3.335 2.98c-7.157 7.157-11.584 17.044-11.584 27.966 0 10.923 4.427 20.808 11.584 27.966ZM146.044 80.578c3.205 4.76 5.608 10.041 7.16 15.561-.721-9.743-4.97-18.504-11.476-25.009-5.766-5.766-13.303-9.76-21.725-11.094 10.498 3.987 19.769 11.222 26.041 20.542Z"/></svg>