<svg xmlns="http://www.w3.org/2000/svg" width="150" height="28" fill="none"><path fill="url(#a)" d="M2.392 5.943C1.288 3.2 3.44.247 6.39.46l51.072 3.674a4 4 0 0 1 3.633 4.785l-2.71 13.348a4 4 0 0 1-3.686 3.197l-40.557 2.368a4 4 0 0 1-3.944-2.5L2.392 5.944Z"/><path fill="#fff" d="M26.047 18.21c.058-.344.03-.634-.088-.868-.11-.241-.28-.443-.508-.606a3.381 3.381 0 0 0-.752-.43 14.267 14.267 0 0 0-.82-.322 16.684 16.684 0 0 1-1.485-.664 6.84 6.84 0 0 1-1.318-.879 3.75 3.75 0 0 1-.928-1.2c-.22-.463-.312-1.003-.273-1.622.046-.703.244-1.312.596-1.826a4.268 4.268 0 0 1 1.338-1.26 6.282 6.282 0 0 1 1.777-.732 7.362 7.362 0 0 1 1.895-.215c.885.013 1.673.199 2.363.557a3.93 3.93 0 0 1 1.62 1.503c.398.645.584 1.42.558 2.325H27.19c.025-.43-.03-.801-.167-1.114a1.458 1.458 0 0 0-.634-.732c-.287-.176-.655-.27-1.104-.283a3.232 3.232 0 0 0-1.133.185c-.364.124-.68.32-.947.586-.26.26-.423.6-.488 1.016-.052.306-.01.57.127.79.143.222.335.411.576.567.247.157.508.29.781.4l.752.284c.527.189 1.035.413 1.524.674.494.26.93.57 1.308.928.378.351.668.768.87 1.25.201.475.282 1.028.243 1.66-.058.722-.253 1.34-.585 1.855a4.077 4.077 0 0 1-1.29 1.25 6.03 6.03 0 0 1-1.728.703c-.625.15-1.26.222-1.904.215a6.552 6.552 0 0 1-1.983-.332 4.91 4.91 0 0 1-1.62-.898 4.06 4.06 0 0 1-1.075-1.456c-.248-.579-.361-1.24-.342-1.982l2.861.01c-.026.397.004.745.088 1.045.091.293.235.54.43.742.202.202.45.355.742.459.3.098.648.15 1.045.156.384 0 .755-.058 1.113-.176a2.28 2.28 0 0 0 .918-.556c.254-.26.414-.596.479-1.006Zm11.953 0c.059-.344.03-.634-.088-.868-.11-.241-.28-.443-.508-.606a3.381 3.381 0 0 0-.752-.43 14.239 14.239 0 0 0-.82-.322 16.669 16.669 0 0 1-1.484-.664 6.838 6.838 0 0 1-1.319-.879 3.75 3.75 0 0 1-.927-1.2c-.222-.463-.313-1.003-.274-1.622.046-.703.244-1.312.596-1.826a4.269 4.269 0 0 1 1.338-1.26 6.281 6.281 0 0 1 1.777-.732 7.361 7.361 0 0 1 1.895-.215c.885.013 1.673.199 2.363.557a3.93 3.93 0 0 1 1.621 1.503c.397.645.583 1.42.557 2.325h-2.832c.026-.43-.03-.801-.166-1.114a1.458 1.458 0 0 0-.635-.732c-.287-.176-.654-.27-1.104-.283a3.232 3.232 0 0 0-1.133.185 2.42 2.42 0 0 0-.947.586c-.26.26-.423.6-.488 1.016-.052.306-.01.57.127.79.143.222.335.411.576.567.247.157.508.29.781.4l.752.284c.528.189 1.035.413 1.524.674.495.26.93.57 1.308.928.378.351.668.768.87 1.25.201.475.283 1.028.244 1.66-.059.722-.254 1.34-.586 1.855a4.077 4.077 0 0 1-1.29 1.25 6.032 6.032 0 0 1-1.728.703c-.625.15-1.26.222-1.904.215a6.552 6.552 0 0 1-1.983-.332 4.911 4.911 0 0 1-1.62-.898 4.06 4.06 0 0 1-1.075-1.456c-.247-.579-.361-1.24-.342-1.982l2.861.01c-.026.397.004.745.088 1.045.092.293.235.54.43.742.202.202.45.355.742.459.3.098.648.15 1.045.156.384 0 .755-.058 1.113-.176a2.28 2.28 0 0 0 .919-.556c.253-.26.413-.596.478-1.006Zm11.953 0c.059-.344.03-.634-.088-.868-.11-.241-.28-.443-.508-.606a3.38 3.38 0 0 0-.752-.43 14.296 14.296 0 0 0-.82-.322 16.684 16.684 0 0 1-1.484-.664 6.841 6.841 0 0 1-1.319-.879 3.75 3.75 0 0 1-.927-1.2c-.222-.463-.313-1.003-.274-1.622.046-.703.244-1.312.596-1.826a4.267 4.267 0 0 1 1.338-1.26 6.282 6.282 0 0 1 1.777-.732 7.361 7.361 0 0 1 1.895-.215c.885.013 1.673.199 2.363.557a3.93 3.93 0 0 1 1.621 1.503c.397.645.583 1.42.557 2.325h-2.832c.026-.43-.03-.801-.166-1.114a1.458 1.458 0 0 0-.635-.732c-.287-.176-.654-.27-1.104-.283a3.232 3.232 0 0 0-1.132.185c-.365.124-.68.32-.948.586-.26.26-.423.6-.488 1.016-.052.306-.01.57.127.79.143.222.335.411.576.567.248.157.508.29.781.4l.752.284c.528.189 1.035.413 1.524.674.495.26.93.57 1.308.928.378.351.668.768.87 1.25.201.475.283 1.028.244 1.66-.059.722-.254 1.34-.586 1.855a4.079 4.079 0 0 1-1.29 1.25 6.031 6.031 0 0 1-1.728.703c-.625.15-1.26.222-1.904.215a6.552 6.552 0 0 1-1.982-.332 4.91 4.91 0 0 1-1.622-.898 4.059 4.059 0 0 1-1.074-1.456c-.247-.579-.361-1.24-.342-1.982l2.862.01a3.1 3.1 0 0 0 .088 1.045c.09.293.234.54.43.742.201.202.449.355.741.459.3.098.648.15 1.045.156.385 0 .756-.058 1.114-.176a2.28 2.28 0 0 0 .918-.556c.253-.26.413-.596.478-1.006Z"/><path fill="#FB015B" d="M67.534 6.781 65.074 21h-2.862l2.47-14.219h2.852Zm4.112 6.065L70.23 21h-2.754l1.836-10.566h2.578l-.244 2.412Zm-.81 2.5-.684.02a8.677 8.677 0 0 1 .43-1.876 6.094 6.094 0 0 1 .878-1.67 4.129 4.129 0 0 1 1.377-1.181c.547-.287 1.182-.423 1.904-.41.586.019 1.068.143 1.446.37.384.222.677.521.879.899.208.378.341.804.4 1.28.065.475.072.97.02 1.484L76.353 21h-2.764l1.143-6.768c.039-.345.029-.65-.03-.917a1.062 1.062 0 0 0-.39-.635c-.196-.157-.482-.238-.86-.245-.416-.013-.778.066-1.084.235-.3.17-.553.397-.761.684a3.753 3.753 0 0 0-.498.947 6.027 6.027 0 0 0-.274 1.045Zm13.71 2.675c.052-.312-.026-.553-.234-.722a2.116 2.116 0 0 0-.772-.4c-.3-.092-.56-.163-.781-.215-.39-.105-.785-.235-1.182-.391a4.856 4.856 0 0 1-1.064-.605 2.738 2.738 0 0 1-.762-.88c-.189-.351-.273-.764-.254-1.24.02-.566.163-1.058.43-1.474a3.437 3.437 0 0 1 1.055-1.045c.43-.28.898-.489 1.406-.625a5.272 5.272 0 0 1 1.513-.186 5.075 5.075 0 0 1 1.954.39 3.434 3.434 0 0 1 1.465 1.134c.377.501.566 1.126.566 1.875l-2.725-.01a1.706 1.706 0 0 0-.136-.752 1.077 1.077 0 0 0-.45-.498c-.201-.117-.459-.176-.771-.176-.248 0-.495.049-.742.147-.241.09-.45.227-.625.41a1.249 1.249 0 0 0-.332.674c-.04.221-.007.403.097.546.104.144.244.26.42.352.176.085.362.156.557.215.195.052.37.094.527.127.573.15 1.133.342 1.68.576a3.44 3.44 0 0 1 1.338.986c.345.417.504.974.478 1.67-.02.593-.175 1.1-.468 1.524-.293.416-.671.758-1.133 1.025-.456.26-.95.45-1.485.567a6.422 6.422 0 0 1-1.552.175 5.18 5.18 0 0 1-2.002-.43 3.678 3.678 0 0 1-1.504-1.19c-.384-.528-.58-1.173-.586-1.934l2.578.01c.006.338.075.624.205.859.13.234.316.413.557.537.247.117.54.176.879.176.266.006.53-.03.79-.108.268-.078.499-.205.694-.38.195-.183.319-.42.371-.713Zm10.732-7.587-.351 1.992H88.94l.351-1.992h5.986Zm-4.052-2.608h2.744l-1.719 10.01a2.196 2.196 0 0 0 0 .586.57.57 0 0 0 .225.361c.117.085.3.134.547.147.136.006.273.003.41-.01a75 75 0 0 1 .42-.059l-.196 2.1c-.26.078-.524.133-.79.166a5.4 5.4 0 0 1-.801.059c-.625-.014-1.14-.15-1.543-.41a2.194 2.194 0 0 1-.86-1.075c-.17-.462-.224-.996-.166-1.601l1.729-10.274Zm9.717 10.791.742-4.736a2.349 2.349 0 0 0-.039-.8 1.017 1.017 0 0 0-.362-.587c-.175-.15-.426-.231-.752-.244a1.737 1.737 0 0 0-.79.156 1.441 1.441 0 0 0-.567.46c-.15.194-.254.429-.313.702l-2.753.02c.032-.586.195-1.09.488-1.514.3-.43.677-.781 1.133-1.054.455-.274.95-.476 1.484-.606a6.082 6.082 0 0 1 1.582-.176c.736.013 1.39.166 1.963.46a3.071 3.071 0 0 1 1.328 1.259c.313.54.43 1.198.352 1.973l-.733 4.53c-.058.378-.104.776-.137 1.192-.032.41.026.801.176 1.172l-.019.176-2.696.01a3.852 3.852 0 0 1-.185-1.182c.006-.41.039-.814.098-1.21Zm1.054-4.053-.263 1.592-1.397-.01c-.28.007-.56.046-.84.118-.273.065-.527.169-.761.312a1.85 1.85 0 0 0-.587.537 1.82 1.82 0 0 0-.283.81c-.032.229-.01.434.069.616a.944.944 0 0 0 .361.42c.17.104.371.16.605.166.333.006.658-.055.977-.186a2.47 2.47 0 0 0 .83-.576c.235-.247.397-.534.488-.86l.586 1.222a4.44 4.44 0 0 1-.595 1.005 4.122 4.122 0 0 1-.811.801c-.306.222-.641.39-1.006.508a3.45 3.45 0 0 1-1.172.176 3.522 3.522 0 0 1-1.601-.41 3.125 3.125 0 0 1-1.152-1.084c-.28-.462-.407-1-.381-1.612.026-.69.198-1.263.517-1.718.32-.463.73-.827 1.23-1.094a5.82 5.82 0 0 1 1.651-.567 9.238 9.238 0 0 1 1.777-.175l1.758.01Zm11.66-4.13h2.52l-1.748 10.205c-.13.97-.453 1.797-.967 2.48a4.892 4.892 0 0 1-1.963 1.553c-.788.351-1.663.517-2.627.498a5.596 5.596 0 0 1-1.387-.215 4.827 4.827 0 0 1-1.279-.576 4.017 4.017 0 0 1-1.035-.928l1.357-1.62c.287.377.625.67 1.016.878.391.215.824.329 1.299.342.508.013.957-.078 1.348-.274a2.59 2.59 0 0 0 .966-.83c.254-.358.424-.784.508-1.279l1.348-7.93.644-2.304Zm-7.802 5.478.029-.205a8.827 8.827 0 0 1 .469-1.973c.234-.657.55-1.253.947-1.787a4.452 4.452 0 0 1 1.455-1.27c.573-.312 1.24-.458 2.002-.439.703.02 1.273.196 1.709.528.436.325.768.752.996 1.279.228.52.378 1.087.449 1.7.078.611.104 1.207.078 1.786l-.048.46a9.685 9.685 0 0 1-.518 1.806 7.545 7.545 0 0 1-.938 1.719c-.384.52-.846.937-1.386 1.25-.534.312-1.143.459-1.826.44-.71-.02-1.299-.193-1.768-.518a3.474 3.474 0 0 1-1.094-1.26 5.43 5.43 0 0 1-.517-1.7 7.698 7.698 0 0 1-.039-1.816Zm2.783-.215-.029.215a7.534 7.534 0 0 0-.04.967c.013.345.066.677.157.996.097.319.257.583.478.791.222.202.528.31.918.322.515.026.954-.081 1.319-.322.371-.24.667-.56.888-.957.222-.404.375-.83.459-1.28l.186-1.298a4.977 4.977 0 0 0-.01-.938 2.648 2.648 0 0 0-.234-.859 1.52 1.52 0 0 0-.528-.635c-.228-.162-.53-.247-.908-.254-.436-.02-.814.072-1.133.274a2.552 2.552 0 0 0-.781.8c-.208.326-.374.68-.498 1.065a5.6 5.6 0 0 0-.244 1.113Zm11.963-2.812L119.194 21h-2.744l1.836-10.566h2.578l-.263 2.45Zm3.447-2.54-.342 2.628a10.527 10.527 0 0 0-.478-.069 5.728 5.728 0 0 0-.479-.039 3.007 3.007 0 0 0-1.025.147 2.324 2.324 0 0 0-.801.459c-.221.195-.41.436-.566.722-.15.287-.264.61-.342.967l-.537-.176a11.92 11.92 0 0 1 .322-1.582c.156-.56.371-1.08.644-1.562.28-.488.635-.882 1.065-1.182.436-.306.967-.455 1.592-.449.162 0 .319.013.468.039.157.026.316.059.479.098Zm5.156 8.272.742-4.736a2.3 2.3 0 0 0-.039-.8 1.015 1.015 0 0 0-.361-.587c-.176-.15-.426-.231-.752-.244a1.737 1.737 0 0 0-.791.156 1.433 1.433 0 0 0-.566.46c-.15.194-.254.429-.313.702l-2.754.02c.033-.586.196-1.09.489-1.514.299-.43.677-.781 1.132-1.054a5.32 5.32 0 0 1 1.485-.606 6.075 6.075 0 0 1 1.582-.176c.735.013 1.39.166 1.963.46a3.071 3.071 0 0 1 1.328 1.259c.312.54.429 1.198.351 1.973l-.732 4.53c-.059.378-.104.776-.137 1.192-.032.41.026.801.176 1.172l-.02.176-2.695.01a3.822 3.822 0 0 1-.185-1.182c.006-.41.039-.814.097-1.21Zm1.055-4.053-.264 1.592-1.396-.01a3.73 3.73 0 0 0-.84.118 2.61 2.61 0 0 0-.762.312 1.861 1.861 0 0 0-.586.537 1.827 1.827 0 0 0-.283.81c-.033.229-.01.434.068.616a.95.95 0 0 0 .362.42c.169.104.371.16.605.166.332.006.658-.055.977-.186.319-.136.595-.328.83-.576.234-.247.397-.534.488-.86l.586 1.222c-.156.364-.355.7-.596 1.005a4.09 4.09 0 0 1-.81.801c-.306.222-.641.39-1.006.508a3.452 3.452 0 0 1-1.172.176 3.52 3.52 0 0 1-1.601-.41 3.13 3.13 0 0 1-1.153-1.084c-.28-.462-.407-1-.381-1.612.026-.69.199-1.263.518-1.718a3.434 3.434 0 0 1 1.23-1.094 5.818 5.818 0 0 1 1.651-.567 9.235 9.235 0 0 1 1.777-.175l1.758.01Zm7.519-1.787L136.362 21h-2.753l1.835-10.566h2.569l-.235 2.343Zm-.791 2.569-.732.01a9.457 9.457 0 0 1 .43-1.885 6.102 6.102 0 0 1 .879-1.67 4.135 4.135 0 0 1 1.386-1.172c.547-.287 1.185-.42 1.914-.4.541.013.99.123 1.348.332.358.208.641.485.85.83.208.345.345.739.41 1.181.071.443.084.902.039 1.377L142.339 21h-2.744l1.123-6.748a3.155 3.155 0 0 0-.01-.899 1.078 1.078 0 0 0-.342-.654c-.182-.17-.459-.26-.83-.273-.403-.013-.755.068-1.054.244-.3.17-.551.397-.752.684a4.1 4.1 0 0 0-.479.957c-.124.345-.211.69-.264 1.035Zm6.163-.323-.987.137c.072-.625.215-1.23.43-1.816a5.794 5.794 0 0 1 .879-1.602c.371-.475.823-.85 1.357-1.123s1.153-.403 1.856-.39c.579.019 1.061.14 1.445.36.384.222.68.522.889.9.215.377.354.803.42 1.279.065.468.071.963.019 1.484L148.325 21h-2.754l1.133-6.758a3.083 3.083 0 0 0-.01-.889 1.082 1.082 0 0 0-.341-.654c-.176-.17-.45-.257-.821-.264a1.894 1.894 0 0 0-.976.206 2.028 2.028 0 0 0-.694.595 3.312 3.312 0 0 0-.459.84 4.981 4.981 0 0 0-.253.947Z"/><defs><linearGradient id="a" x1="62" x2="-1.336" y1="0" y2="3.445" gradientUnits="userSpaceOnUse"><stop stop-color="#02C2FE"/><stop offset=".94" stop-color="#DB00FF"/></linearGradient></defs></svg>