<svg xmlns="http://www.w3.org/2000/svg" width="230" height="230" fill="none"><path fill="#33296B" d="M151.903 72.521a396.983 396.983 0 0 0-.405-11.393 382.652 382.652 0 0 0-1.083-15.6l.001-.001-2.435-3.148h-.001l-.113-.026C126.391 37.222 100.811 35 76.959 35c-26.6.001-51.044 2.763-65.261 7.355l-.102.033-.01.107a395.765 395.765 0 0 0-1.474 26.449l-.005.194c-.071 3.14-.107 6.288-.107 9.44 0 17.243 1.071 34.589 3.208 51.206l.014.107v.001l2.732 2.888v-.001.002c32.65 8.509 91.837 13.721 132.841 0a366.674 366.674 0 0 0 1.466-13.329 410.869 410.869 0 0 0 1.736-36.322c.013-3.54-.017-7.078-.094-10.609Z"/><path fill="#FFFEDC" d="M148.933 74.334c-.08-3.552-.21-7.087-.395-10.606a340.067 340.067 0 0 0-1.057-14.522h.001l-2.376-2.93h-.001l-.11-.026c-20.952-4.775-45.908-6.844-69.18-6.844-25.95.001-49.905 2.448-63.669 6.847l-.1.03-.008.1a351.689 351.689 0 0 0-1.44 24.62l-.004.18a367.11 367.11 0 0 0-.104 8.788c0 16.052 1.045 32.198 3.13 47.667l.013.1v.001l2.666 2.688v-.001.002c31.854 7.921 89.597 12.772 129.601 0 .551-4.093 1.03-8.235 1.431-12.408a365.08 365.08 0 0 0 1.694-33.811c.012-3.295-.017-6.59-.092-9.876Z"/><path fill="#FFF9C2" d="M147.784 55.037c0-2.97-.031-5.935-.095-8.894-23.48-3.92-47.381-6.643-71.189-6.643-2.975 0-5.95.031-8.923.092 27.31 1.368 54.511 7.603 80.205 16.964l.002-1.52Z"/><path fill="#FFF9C2" fill-rule="evenodd" d="M84.807 138.05c21.393 0 43.108-2.352 61.254-8.408a376.696 376.696 0 0 0 1.449-13.131c-8.222 3.848-16.83 6.883-25.618 9.145a164.636 164.636 0 0 1-12.887 2.759l-1.887.315c-10.552 1.704-21.266 2.432-31.973 2.362l-2.49-.031c-3.435-.062-6.868-.205-10.295-.422-7.975-.505-16.014-1.432-23.545-4.109-7.535-2.672-14.592-7.238-19.084-13.85-5.28-7.768-6.57-17.807-4.78-27.029 1.257-6.499 7.246-36.91 10.714-42.573-2.11.274-4.718.974-7.295 1.665-2.286.613-4.547 1.22-6.412 1.516-.245 3.427-1.635 23.498-1.635 32.319 0 17.192 1.066 34.487 3.192 51.056 18.146 4.718 44.466 8.416 71.292 8.416Z" clip-rule="evenodd"/><rect width="59.602" height="58.694" fill="#33296B" rx="29.347" transform="matrix(1 0 0 -1 50 105.694)"/><path fill="#F2C844" d="M100.923 76.377a4.36 4.36 0 0 1-.862.087c-.244 0-.487-.022-.728-.058-1.23 10.098-9.83 17.918-20.26 17.918-10.316 0-18.844-7.651-20.217-17.59-.24.035-.483.057-.726.057-.288 0-.577-.03-.862-.087a.489.489 0 1 1 .193-.96c.219.044.443.066.67.066a3.617 3.617 0 0 0 2.467-.97.491.491 0 0 1 .674.711 4.54 4.54 0 0 1-1.463.924c1.252 9.519 9.4 16.872 19.264 16.869 9.977.003 18.199-7.519 19.305-17.2a4.455 4.455 0 0 1-1.46-.92.49.49 0 0 1 .675-.71 3.617 3.617 0 0 0 3.138.904.489.489 0 1 1 .192.96Zm-26.002-6.893c0 4.842-2.524 8.769-5.638 8.769s-5.638-3.927-5.638-8.769c0-4.846 2.524-8.772 5.638-8.772s5.638 3.926 5.638 8.772Zm13.987-8.772c3.114 0 5.638 3.926 5.638 8.772 0 4.842-2.525 8.769-5.638 8.769-3.114 0-5.638-3.927-5.638-8.769 0-4.846 2.524-8.772 5.638-8.772Zm17.31 13.144c-.363-6.97-3.337-13.245-7.964-17.872a27.23 27.23 0 0 0-19.314-8 27.184 27.184 0 0 0-16.175 5.303 27.35 27.35 0 0 0-9.183 11.84A27.226 27.226 0 0 0 51.623 75.3a27.229 27.229 0 0 0 8.001 19.315 27.23 27.23 0 0 0 19.316 8 27.23 27.23 0 0 0 19.314-8 27.285 27.285 0 0 0 2.101-2.356 27.2 27.2 0 0 0 5.9-16.96c0-.484-.013-.962-.037-1.443Z"/><path fill="#6448FF" d="M51.379 75.3c0-15.22 12.339-27.56 27.56-27.56 5.06 0 9.8 1.361 13.876 3.743 9.236 4.609 15.567 14.046 15.567 24.941 0 15.436-12.706 27.948-28.379 27.948-13.818 0-25.329-9.725-27.861-22.603a27.66 27.66 0 0 1-.763-6.47ZM79.8 105.694c16.458 0 29.801-13.14 29.801-29.345C109.602 60.14 96.259 47 79.801 47 63.342 47 50 60.14 50 76.349c0 16.204 13.342 29.345 29.8 29.345Z"/><path fill="#F2BC2B" d="M78.94 102.615a27.23 27.23 0 0 0 19.314-8 27.285 27.285 0 0 0 2.101-2.356c-4.115 3.359-9.105 5.647-14.371 6.358-10.923 1.473-22.48-3.905-28.384-13.212-3.78-5.96-5.119-13.324-4.018-20.278A27.226 27.226 0 0 0 51.623 75.3a27.229 27.229 0 0 0 8.001 19.315 27.23 27.23 0 0 0 19.316 8ZM92.705 56.397c5.993 3.877 10.681 9.732 13.152 16.428.127.341.247.686.361 1.03-.363-6.968-3.337-13.244-7.964-17.87a27.23 27.23 0 0 0-19.314-8 27.184 27.184 0 0 0-16.175 5.302 33.091 33.091 0 0 1 9.808-2.149c7.042-.445 14.21 1.43 20.132 5.26Z"/><path fill="#F3E7D8" d="M68.894 67.404c.783.431 1.844.276 2.47-.363.627-.64.763-1.703.318-2.478-.926-1.614-3.382-1.247-3.805.56-.203.87.233 1.85 1.017 2.28ZM71.77 68.14a.55.55 0 0 0 .262.59.546.546 0 0 0 .637-.094.55.55 0 0 0 .082-.64c-.239-.412-.872-.319-.98.144ZM88.561 66.34c.784.432 1.845.277 2.472-.362.626-.636.762-1.703.317-2.475-.927-1.613-3.382-1.247-3.805.557-.204.873.233 1.85 1.016 2.28ZM91.438 67.08a.55.55 0 0 0 .263.59.552.552 0 0 0 .637-.094.55.55 0 0 0 .081-.639.534.534 0 0 0-.98.144Z"/><path fill="#F46B5A" d="M99.732 74.272c1.647.381 3.264-.52 3.613-2.015.349-1.498-.703-3.025-2.349-3.405-1.647-.385-3.264.517-3.614 2.015-.348 1.494.703 3.021 2.35 3.405ZM58.555 74.596c1.647-.381 2.698-1.908 2.35-3.402-.35-1.498-1.967-2.4-3.614-2.019-1.646.384-2.698 1.911-2.349 3.409.349 1.494 1.967 2.396 3.613 2.012Z"/><path fill="#33296B" d="M219.903 126.521a396.955 396.955 0 0 0-.405-11.393 382.667 382.667 0 0 0-1.083-15.6l.001-.001-2.435-3.148h-.001l-.113-.026C194.391 91.223 168.811 89 144.959 89c-26.6.001-51.044 2.763-65.261 7.356l-.102.032-.01.107a395.768 395.768 0 0 0-1.474 26.449l-.004.194a412.953 412.953 0 0 0-.108 9.44c0 17.243 1.071 34.589 3.208 51.206l.014.107v.001l2.732 2.888v-.001.002c32.65 8.509 91.837 13.721 132.841 0a366.674 366.674 0 0 0 1.466-13.329 410.866 410.866 0 0 0 1.736-36.322c.013-3.539-.017-7.078-.094-10.609Z"/><path fill="#FFFEDC" d="M216.933 128.333c-.08-3.551-.21-7.086-.395-10.605a340.11 340.11 0 0 0-1.057-14.522l.001-.001-2.376-2.93h-.001l-.11-.025c-20.952-4.775-45.908-6.844-69.179-6.844-25.951.001-49.906 2.448-63.67 6.847l-.1.031-.008.099a351.656 351.656 0 0 0-1.44 24.621l-.004.18c-.07 2.923-.105 5.853-.104 8.787 0 16.052 1.045 32.198 3.13 47.667l.013.1v.001l2.666 2.688v-.001.002c31.854 7.921 89.597 12.772 129.601 0 .551-4.093 1.03-8.235 1.431-12.408a365.076 365.076 0 0 0 1.694-33.811c.012-3.295-.017-6.589-.092-9.876Z"/><path fill="#FFF9C2" d="M215.784 109.037c0-2.969-.031-5.935-.095-8.894-23.48-3.92-47.381-6.643-71.189-6.643-2.975 0-5.949.031-8.923.092 27.311 1.368 54.511 7.603 80.205 16.964l.002-1.519Z"/><path fill="#FFF9C2" fill-rule="evenodd" d="M152.807 192.05c21.393 0 43.108-2.352 61.254-8.408a376.696 376.696 0 0 0 1.449-13.131c-8.222 3.848-16.83 6.883-25.618 9.145a164.636 164.636 0 0 1-12.887 2.759l-1.887.315c-10.552 1.704-21.266 2.432-31.973 2.362l-2.489-.031c-3.436-.062-6.87-.205-10.296-.422-7.975-.505-16.014-1.432-23.545-4.109-7.535-2.672-14.592-7.238-19.084-13.85-5.28-7.768-6.57-17.807-4.78-27.028 1.257-6.5 7.246-36.911 10.714-42.574-2.11.274-4.718.974-7.295 1.665-2.286.613-4.547 1.22-6.412 1.516-.245 3.427-1.635 23.498-1.635 32.319 0 17.192 1.066 34.487 3.192 51.056 18.146 4.718 44.466 8.416 71.292 8.416Z" clip-rule="evenodd"/><rect width="59.602" height="58.694" fill="#33296B" rx="29.347" transform="matrix(1 0 0 -1 118 179.694)"/><path fill="#F2C844" d="M168.923 150.378a4.398 4.398 0 0 1-1.589.028c-1.23 10.098-9.831 17.918-20.261 17.918-10.316 0-18.844-7.651-20.217-17.591-.24.036-.483.058-.726.058-.288 0-.577-.029-.862-.087a.489.489 0 1 1 .192-.959 3.615 3.615 0 0 0 3.138-.905.49.49 0 0 1 .674.711 4.52 4.52 0 0 1-1.463.924c1.252 9.519 9.4 16.872 19.264 16.869 9.977.003 18.199-7.519 19.305-17.2a4.435 4.435 0 0 1-1.459-.92.49.49 0 0 1 .674-.711 3.613 3.613 0 0 0 3.138.905.49.49 0 0 1 .192.96Zm-26.002-6.894c0 4.842-2.524 8.769-5.638 8.769s-5.638-3.927-5.638-8.769c0-4.846 2.524-8.772 5.638-8.772s5.638 3.926 5.638 8.772Zm13.987-8.772c3.114 0 5.638 3.926 5.638 8.772 0 4.842-2.524 8.769-5.638 8.769s-5.638-3.927-5.638-8.769c0-4.846 2.524-8.772 5.638-8.772Zm17.31 13.144c-.363-6.969-3.337-13.245-7.964-17.872a27.228 27.228 0 0 0-19.314-8 27.184 27.184 0 0 0-16.175 5.303 27.352 27.352 0 0 0-9.183 11.84 27.225 27.225 0 0 0-1.958 10.173 27.228 27.228 0 0 0 8 19.315 27.232 27.232 0 0 0 19.316 8 27.228 27.228 0 0 0 19.314-8 27.158 27.158 0 0 0 2.101-2.356 27.201 27.201 0 0 0 5.9-16.959c0-.485-.013-.963-.037-1.444Z"/><path fill="#6448FF" d="M119.379 149.3c0-15.221 12.339-27.56 27.561-27.56a27.4 27.4 0 0 1 13.874 3.743c9.237 4.609 15.568 14.046 15.568 24.941 0 15.436-12.706 27.948-28.379 27.948-13.818 0-25.329-9.725-27.861-22.603a27.65 27.65 0 0 1-.763-6.469Zm28.422 30.394c16.458 0 29.801-13.141 29.801-29.345 0-16.209-13.343-29.349-29.801-29.349C131.342 121 118 134.14 118 150.349c0 16.204 13.342 29.345 29.801 29.345Z"/><path fill="#F2BC2B" d="M146.94 176.615a27.228 27.228 0 0 0 19.314-8 27.158 27.158 0 0 0 2.101-2.356c-4.115 3.359-9.105 5.647-14.371 6.358-10.923 1.473-22.479-3.905-28.384-13.212-3.781-5.96-5.119-13.324-4.018-20.278a27.225 27.225 0 0 0-1.958 10.173 27.228 27.228 0 0 0 8 19.315 27.232 27.232 0 0 0 19.316 8ZM160.705 130.397c5.993 3.876 10.681 9.732 13.152 16.428.127.341.247.686.361 1.031-.363-6.969-3.337-13.245-7.964-17.872a27.228 27.228 0 0 0-19.314-8 27.184 27.184 0 0 0-16.175 5.303 33.115 33.115 0 0 1 9.809-2.149c7.041-.445 14.209 1.43 20.131 5.259Z"/><path fill="#F3E7D8" d="M136.894 141.404c.783.431 1.844.277 2.471-.363.626-.639.762-1.703.317-2.479-.926-1.612-3.382-1.246-3.805.561-.203.869.233 1.85 1.017 2.281ZM139.77 142.14a.552.552 0 0 0 .262.59.548.548 0 0 0 .637-.094.548.548 0 0 0 .082-.639c-.239-.413-.872-.32-.981.143ZM156.561 140.341c.784.431 1.845.276 2.472-.363.626-.636.762-1.703.317-2.475-.927-1.613-3.382-1.247-3.805.557-.203.873.233 1.85 1.016 2.281ZM159.438 141.081a.55.55 0 0 0 .263.589.552.552 0 0 0 .636-.093.55.55 0 0 0 .082-.64.534.534 0 0 0-.981.144Z"/><path fill="#F46B5A" d="M167.732 148.272c1.647.381 3.264-.52 3.613-2.015.349-1.498-.703-3.024-2.349-3.405-1.647-.385-3.264.517-3.614 2.015-.348 1.494.703 3.021 2.35 3.405ZM126.555 148.596c1.647-.381 2.698-1.908 2.35-3.402-.349-1.498-1.967-2.4-3.614-2.019-1.646.384-2.698 1.911-2.349 3.409.349 1.494 1.967 2.396 3.613 2.012Z"/><path fill="#33296B" d="M185.903 99.292a396.963 396.963 0 0 0-.405-11.393 382.64 382.64 0 0 0-1.083-15.6l.001-.001-2.435-3.147h-.001l-.113-.027c-21.476-5.13-47.056-7.353-70.908-7.353-26.6.001-51.044 2.763-65.261 7.356l-.102.033-.01.106a395.769 395.769 0 0 0-1.474 26.45l-.005.193c-.071 3.14-.107 6.288-.107 9.44 0 17.243 1.071 34.589 3.208 51.206l.014.108 2.732 2.888v-.001.002c32.65 8.509 91.837 13.721 132.841 0a366.674 366.674 0 0 0 1.466-13.329 410.866 410.866 0 0 0 1.736-36.322c.013-3.539-.017-7.078-.094-10.609Z"/><path fill="#FFFEDC" d="M182.933 101.105c-.08-3.552-.21-7.087-.395-10.606a340.055 340.055 0 0 0-1.057-14.522h.001l-2.376-2.93h-.001l-.11-.025c-20.952-4.776-45.908-6.845-69.179-6.845-25.951.001-49.906 2.448-63.67 6.847l-.1.03-.008.1a351.689 351.689 0 0 0-1.44 24.62l-.004.181a367.16 367.16 0 0 0-.105 8.788c0 16.051 1.046 32.198 3.13 47.666l.014.1v.001l2.666 2.688v-.001.002c31.854 7.921 89.597 12.773 129.601 0 .551-4.093 1.03-8.234 1.431-12.407a365.097 365.097 0 0 0 1.694-33.812c.012-3.294-.017-6.589-.092-9.875Z"/><path fill="#FFF9C2" d="M181.784 81.808c0-2.969-.031-5.935-.095-8.893-23.48-3.922-47.381-6.644-71.189-6.644-2.975 0-5.949.032-8.923.092 27.311 1.368 54.511 7.603 80.205 16.964l.002-1.519Z"/><path fill="#FFF9C2" fill-rule="evenodd" d="M118.807 164.821c21.393 0 43.108-2.352 61.254-8.408a376.906 376.906 0 0 0 1.449-13.13c-8.222 3.847-16.83 6.883-25.618 9.144a164.18 164.18 0 0 1-12.887 2.759l-1.887.315c-10.552 1.705-21.266 2.433-31.973 2.362l-2.489-.031c-3.436-.062-6.87-.205-10.296-.422-7.975-.504-16.014-1.432-23.545-4.109-7.535-2.672-14.592-7.238-19.084-13.85-5.28-7.768-6.57-17.807-4.78-27.028 1.257-6.5 7.246-36.911 10.714-42.574-2.11.274-4.718.974-7.295 1.665-2.286.614-4.547 1.22-6.412 1.517-.245 3.426-1.635 23.497-1.635 32.318 0 17.193 1.066 34.487 3.192 51.056 18.146 4.718 44.466 8.416 71.292 8.416Z" clip-rule="evenodd"/><rect width="59.602" height="58.694" fill="#33296B" rx="29.347" transform="matrix(1 0 0 -1 84 142.694)"/><path fill="#FFE600" d="M134.923 113.378a4.398 4.398 0 0 1-1.589.028c-1.23 10.098-9.831 17.918-20.261 17.918-10.316 0-18.844-7.651-20.217-17.591a4.89 4.89 0 0 1-.726.058c-.288 0-.577-.029-.862-.087a.489.489 0 1 1 .192-.959 3.614 3.614 0 0 0 3.138-.905.49.49 0 0 1 .674.711 4.532 4.532 0 0 1-1.463.924c1.252 9.519 9.4 16.872 19.264 16.869 9.977.003 18.199-7.519 19.305-17.2a4.435 4.435 0 0 1-1.459-.92.49.49 0 0 1 .674-.711 3.613 3.613 0 0 0 3.138.905.49.49 0 0 1 .192.96Zm-26.002-6.894c0 4.842-2.524 8.769-5.638 8.769s-5.638-3.927-5.638-8.769c0-4.846 2.524-8.772 5.638-8.772s5.638 3.926 5.638 8.772Zm13.987-8.772c3.114 0 5.638 3.926 5.638 8.772 0 4.842-2.524 8.769-5.638 8.769s-5.638-3.927-5.638-8.769c0-4.846 2.524-8.772 5.638-8.772Zm17.31 13.144a27.224 27.224 0 0 0-7.964-17.872 27.228 27.228 0 0 0-19.314-8 27.186 27.186 0 0 0-16.175 5.303 27.348 27.348 0 0 0-9.183 11.84 27.223 27.223 0 0 0-1.958 10.173 27.227 27.227 0 0 0 8 19.315 27.231 27.231 0 0 0 19.316 8 27.228 27.228 0 0 0 19.314-8 27.158 27.158 0 0 0 2.101-2.356 27.201 27.201 0 0 0 5.9-16.959c0-.485-.013-.963-.037-1.444Z"/><path fill="#6448FF" d="M85.379 112.3c0-15.22 12.339-27.56 27.561-27.56 5.059 0 9.799 1.362 13.874 3.743 9.237 4.609 15.568 14.046 15.568 24.941 0 15.436-12.706 27.948-28.379 27.948-13.818 0-25.329-9.725-27.861-22.603a27.655 27.655 0 0 1-.763-6.469Zm28.422 30.394c16.458 0 29.801-13.141 29.801-29.345C143.602 97.14 130.259 84 113.801 84 97.342 84 84 97.14 84 113.349c0 16.204 13.342 29.345 29.801 29.345Z"/><path fill="#FFD703" d="M112.94 139.615a27.228 27.228 0 0 0 19.314-8 27.158 27.158 0 0 0 2.101-2.356c-4.115 3.359-9.105 5.647-14.371 6.358-10.923 1.473-22.48-3.905-28.384-13.212-3.78-5.96-5.119-13.324-4.018-20.278a27.223 27.223 0 0 0-1.958 10.173 27.227 27.227 0 0 0 8 19.315 27.231 27.231 0 0 0 19.316 8ZM126.705 93.397c5.993 3.876 10.681 9.732 13.152 16.428.127.341.247.686.361 1.031a27.224 27.224 0 0 0-7.964-17.872 27.228 27.228 0 0 0-19.314-8 27.186 27.186 0 0 0-16.175 5.303 33.094 33.094 0 0 1 9.809-2.149c7.041-.445 14.209 1.43 20.131 5.26Z"/><path fill="#F3E7D8" d="M102.894 104.404c.783.431 1.844.277 2.471-.363.626-.639.762-1.703.317-2.479-.926-1.612-3.382-1.246-3.805.561-.203.869.233 1.85 1.017 2.281ZM105.77 105.14a.552.552 0 0 0 .262.59.548.548 0 0 0 .637-.094.548.548 0 0 0 .082-.639c-.239-.413-.872-.32-.981.143ZM122.561 103.341c.784.431 1.845.276 2.472-.363.626-.636.762-1.703.317-2.475-.927-1.613-3.382-1.247-3.805.557-.203.873.233 1.85 1.016 2.281ZM125.438 104.081a.55.55 0 0 0 .263.589.552.552 0 0 0 .636-.093.55.55 0 0 0 .082-.64.534.534 0 0 0-.981.144Z"/><path fill="#F46B5A" d="M133.732 111.272c1.647.381 3.264-.52 3.613-2.015.349-1.498-.703-3.024-2.349-3.405-1.647-.385-3.264.517-3.614 2.015-.348 1.494.703 3.021 2.35 3.405ZM92.555 111.596c1.647-.381 2.698-1.908 2.35-3.402-.35-1.498-1.967-2.4-3.614-2.019-1.646.384-2.698 1.911-2.349 3.409.349 1.494 1.967 2.396 3.613 2.012Z"/></svg>