<svg xmlns="http://www.w3.org/2000/svg" width="414" height="332" fill="none"><g clip-path="url(#a)"><g stroke="#A3A1FF" stroke-linecap="round" stroke-linejoin="round" stroke-width="2" clip-path="url(#b)"><path d="M40.798 296.259a2.972 2.972 0 0 1 1.816 3.786M43.677 292.551a5.936 5.936 0 0 1 3.63 7.572M41.135 304.246l-2.463 7.002a2.97 2.97 0 0 1-3.786 1.815l-16.804-5.913a2.968 2.968 0 0 1-1.816-3.786l3.942-11.202a2.967 2.967 0 0 1 3.786-1.816l12.603 4.435M19.404 312.335l11.203 3.942"/></g><g clip-path="url(#c)"><path fill="#fff" stroke="#A3A1FF" stroke-linecap="round" stroke-linejoin="round" stroke-width="1.89" d="M69.652 49.46 46.74 56.322a2.99 2.99 0 0 1-3.723-2.007l-6.006-20.054a2.99 2.99 0 0 1 2.007-3.723l22.91-6.862a2.991 2.991 0 0 1 3.723 2.007l6.007 20.054a2.99 2.99 0 0 1-2.007 3.723Z"/><path fill="#A3A1FF" d="M48.737 34.786a2.99 2.99 0 1 1-2.745 5.313 2.99 2.99 0 0 1 2.745-5.313Z"/><path stroke="#A3A1FF" stroke-linecap="round" stroke-linejoin="round" stroke-width="1.89" d="m70.376 41.439-7.492-3.025a1.5 1.5 0 0 0-1.627.339c-.137.14-.246.306-.32.488l-2.99 7.405a1.493 1.493 0 0 1-1.947.826l-3.317-1.34a1.494 1.494 0 0 0-1.935.8l-4.011 9.392"/></g><g stroke="#A3A1FF" stroke-linecap="round" stroke-linejoin="round" stroke-width="1.8" clip-path="url(#d)"><path d="m396.33 58.392 3.508 3.567a.826.826 0 0 1 .211.797.834.834 0 0 1-.578.588l-4.817 1.356a.833.833 0 0 1-1.03-1.015l1.308-4.923a.826.826 0 0 1 .591-.59.832.832 0 0 1 .807.22Z"/><path d="m400.498 73.207-12.867-3.417a3.328 3.328 0 0 1-2.362-4.071l3.417-12.868a3.328 3.328 0 0 1 4.071-2.362l12.867 3.417a3.328 3.328 0 0 1 2.362 4.071l-3.417 12.867a3.324 3.324 0 0 1-4.071 2.363Z"/></g><path fill="#33296B" fill-rule="evenodd" d="M318.044 23.702c1.93 19.167 3.363 46.31 4.426 77.155l2.73 144.577c.329 38.046.421 72.673.486 97.064l.017 6.324c-41.275 18.224-174.289 24.559-234.006 0l-6.029-6.433.02-.015.001-.265c.005-1.664.007-3.385.007-5.164 0-17.378-.213-40.154-.452-65.76-.307-32.87-.657-70.403-.657-107.164 0-58.09.874-114.244 4.181-147.07l.03-.288.282-.063c25.156-5.573 67.851-8.352 110.85-8.352 42.998 0 86.274 2.779 112.589 8.352l.284.06.002.012.015-.03 5.224 7.06Z" clip-rule="evenodd"/><path fill="#A3A1FF" d="M218.198 342.927c-3.668 4.052-9.317 6.651-15.655 6.651-7.4 0-13.864-3.541-17.347-8.815-1.735-2.629-2.731-5.688-2.731-8.953 0-.551.029-1.094.084-1.63.041-4.857 2.285-9.249 5.873-12.42 3.621-3.204 8.613-5.178 14.12-5.178 5.506 0 10.499 1.974 14.12 5.178 3.58 3.165 5.822 7.546 5.872 12.39a16 16 0 0 1 .087 1.66c0 3.855-1.391 7.424-3.757 10.339a18.11 18.11 0 0 1-.666.778Zm14.549-304.962-.049.37-.374-.022c-4.606-.293-17.201-.44-29.782-.44-12.582 0-25.176.147-29.782.44l-.374.022-.048-.37a18.669 18.669 0 0 1-.148-2.425c.002-3.122.646-6.41 1.427-8.67l.085-.243.259-.023c4.156-.36 17.176-.996 31.245-.996 8.883 0 18.179.252 25.921.996l.256.025.084.24c.781 2.26 1.424 5.551 1.426 8.673 0 .826-.045 1.642-.146 2.423Zm86.825 263.839c-.065-16.922-.159-36.005-.323-56.191-9.079.209-18.298.124-27.434-.293.087 15.951.124 30.51.159 42.695v.26l-.238.107c-18.325 8.085-53.848 13.303-90.485 13.307-31.657-.002-64.121-3.902-86.986-13.302l-.249-.103.001-.269c.004-1.369.005-2.768.005-4.195 0-31.833-.912-77.888-.912-122.693 0-39.8.719-78.61 3.441-105.623l.029-.287.283-.062c20.703-4.588 51.993-6.875 83.53-6.875 31.536 0 63.304 2.287 84.961 6.875l.283.06.03.29c1.293 12.821 2.315 28.304 3.12 45.29a687.366 687.366 0 0 1 24.294-.122c1.201.015 2.401.035 3.602.055-1.081-33.389-2.566-62.916-4.617-83.406-26.23-5.513-69.333-8.276-112.136-8.276-42.798 0-85.319 2.763-110.393 8.273a379.02 379.02 0 0 0-.371 3.926c-2.973 33.228-3.779 87.119-3.778 142.776 0 18.692.09 37.586.22 55.965.323 45.912.889 88.611.889 116.958 0 1.685-.002 3.317-.006 4.898 27.598 11.275 70.876 16 113.461 15.998 24.715 0 49.2-1.587 70.264-4.396 20.913-2.785 38.46-6.781 49.478-11.596-.03-11.029-.062-24.642-.122-40.044Z"/><path fill="#A3A1FF" d="M319.249 245.613c-9.079.209-18.298.124-27.434-.293l-3.028-144.525a687.366 687.366 0 0 1 24.294-.122c1.201.015 2.401.035 3.602.055l2.566 144.885Z"/><path fill="#F3E7D8" d="M216.13 318.358c-3.47-3.069-8.274-4.977-13.589-4.977-5.058 0-9.654 1.728-13.077 4.541a18.02 18.02 0 0 0-.511.436c-3.47 3.071-5.604 7.296-5.604 11.957 0 4.662 2.134 8.887 5.604 11.959 3.47 3.069 8.274 4.976 13.588 4.974 5.315.002 10.119-1.905 13.589-4.974.387-.344.757-.701 1.109-1.071 2.81-2.949 4.494-6.745 4.495-10.888-.001-4.661-2.134-8.886-5.604-11.957ZM231.663 30.902a25.71 25.71 0 0 0-.871-3.529c-7.647-.72-16.817-.968-25.586-.968-12.428 0-24.059.5-29.419.861-.572.038-1.073.076-1.496.112-.713 2.155-1.3 5.262-1.299 8.162 0 .667.031 1.32.097 1.952 4.934-.28 17.187-.418 29.453-.418 12.266 0 24.519.137 29.453.418.066-.63.097-1.285.097-1.95.001-1.547-.166-3.151-.429-4.64Z"/><path fill="#F9AB42" d="M215.42 108.322c-.031-.037-.042-.041-.02.015l.02-.015Z"/><path fill="#F3E7D8" d="M291.147 279.077c-.029-10.152-.068-21.562-.135-33.792-27.418-1.303-54.035-5.575-73.82-13.713l-4.911-5.261.068-.047-.034-.014-.014-.251c-1.157-20.955-2.006-34.217-2.006-48.249 0-17.013 1.249-35.141 4.707-69.451l.029-.288.282-.063c18.472-4.093 44.85-6.466 72.673-7.134-.802-16.84-1.812-32.196-3.086-44.937-21.554-4.527-53.152-6.797-84.508-6.797-23.321 0-46.515 1.256-65.347 3.76-6.483.865-12.449 1.875-17.726 3.035-2.693 26.942-3.409 65.607-3.409 105.253 0 44.796.913 90.846.913 122.693 0 1.334-.001 2.644-.005 3.927 22.682 9.264 54.959 13.145 86.433 13.143 36.39.004 71.735-5.191 89.918-13.134-.004-2.777-.013-5.673-.022-8.68Z"/><path fill="#F3E7D8" d="M291.012 245.285c-27.418-1.303-54.035-5.575-73.82-13.713l-4.911-5.261.068-.047-.034-.014-.014-.251c-1.157-20.955-2.006-34.217-2.006-48.249 0-17.013 1.249-35.141 4.707-69.451l.029-.288.282-.063c18.472-4.093 44.85-6.466 72.673-7.134l3.026 144.471Z"/><path fill="#7775FF" d="M175.721 16.503c36.104.64 79.878-1.012 108.922 24.02 12.786 11.016 21.256 26.511 25.455 42.847 1.461 5.684 2.428 11.47 2.983 17.303 1.201.015 2.401.035 3.602.055-1.081-33.389-2.565-62.916-4.616-83.406-26.231-5.514-69.334-8.276-112.136-8.276-42.799 0-85.32 2.762-110.394 8.273a379.065 379.065 0 0 0-.371 3.926 600.312 600.312 0 0 1 86.555-4.742ZM86.491 341.842c27.598 11.276 70.876 16 113.461 15.998 24.714 0 49.2-1.587 70.264-4.396 20.912-2.785 38.46-6.781 49.478-11.595-.03-11.03-.062-24.642-.122-40.044-23.743 16.467-49.421 30.069-77.411 36.712a150.646 150.646 0 0 1-23.297 3.633 18.85 18.85 0 0 1-.667.777c-3.667 4.052-9.316 6.651-15.655 6.651-7.4 0-13.864-3.541-17.346-8.814-19.352-3.2-37.721-10.716-52.791-23.239-23.19-19.266-36.403-48.25-43.09-77.619-1.504-6.595-2.713-13.24-3.707-19.919.323 45.911.889 88.61.889 116.958 0 1.685-.002 3.317-.006 4.897Z"/><path fill="#F3DAB9" d="M139.349 237.157c-17.144-26.522-20.125-59.716-18.907-91.259a403.859 403.859 0 0 1 14.604-93.058c-6.484.862-12.45 1.873-17.726 3.032-2.693 26.943-3.409 65.609-3.409 105.254 0 44.797.913 90.847.913 122.694 0 1.335-.002 2.644-.005 3.928 22.681 9.263 54.959 13.144 86.433 13.142 36.39.004 71.734-5.19 89.92-13.134l-.024-8.68c-15.025 5.611-31.172 8.294-47.245 8.484-40.399.47-82.645-16.528-104.554-50.403Z"/><path fill="#F4C07B" d="M188.953 342.274c3.47 3.069 8.274 4.976 13.588 4.974 5.315.002 10.119-1.905 13.589-4.974.387-.344.757-.701 1.109-1.071-3.935.265-7.911-.299-11.567-1.811-8.71-3.586-14.93-12.213-16.208-21.47a18.02 18.02 0 0 0-.511.436c-3.47 3.071-5.604 7.296-5.604 11.957 0 4.662 2.134 8.887 5.604 11.959ZM202.541 37.075c12.266 0 24.52.137 29.454.417.065-.628.097-1.284.097-1.95 0-1.546-.166-3.149-.43-4.636-8.556 2.939-17.462 4.843-26.492 4.843-10.35 0-20.893-2.681-29.383-8.48-.573.037-1.073.075-1.496.11-.714 2.155-1.301 5.263-1.3 8.164 0 .665.032 1.319.098 1.949 4.934-.28 17.186-.417 29.452-.417Z"/><path fill="#F89C2A" d="m215.4 108.337.02-.015c-.031-.037-.042-.041-.02.015Z"/><path fill="#33296B" d="M351.186 87.206h-73.49c-17.906 0-32.422 14.481-32.422 32.344v73.312c0 17.863 14.516 32.344 32.422 32.344h73.49c17.906 0 32.422-14.481 32.422-32.344V119.55c0-17.863-14.516-32.344-32.422-32.344Z"/><path fill="url(#e)" d="M348.474 84.5h-73.49c-17.906 0-32.422 14.48-32.422 32.344v73.312c0 17.863 14.516 32.344 32.422 32.344h73.49c17.906 0 32.422-14.481 32.422-32.344v-73.312c0-17.863-14.516-32.344-32.422-32.344Z"/><path fill="url(#f)" d="M348.474 84.5h-73.49c-17.906 0-32.422 14.48-32.422 32.344v73.312c0 17.863 14.516 32.344 32.422 32.344h73.49c17.906 0 32.422-14.481 32.422-32.344v-73.312c0-17.863-14.516-32.344-32.422-32.344Z"/><path fill="#fff" d="M311.734 99.594c-14.676 0-16.518.064-22.281.325-5.753.263-9.68 1.172-13.116 2.505-3.554 1.377-6.569 3.219-9.572 6.216-3.006 2.996-4.853 6.004-6.237 9.548-1.34 3.429-2.252 7.348-2.511 13.084-.257 5.75-.325 7.588-.325 22.229 0 14.64.065 16.472.326 22.221.265 5.739 1.176 9.657 2.511 13.084 1.381 3.546 3.228 6.553 6.232 9.549 3.003 2.999 6.018 4.845 9.569 6.222 3.439 1.333 7.366 2.242 13.118 2.505 5.764.261 7.604.325 22.279.325 14.677 0 16.513-.064 22.277-.325 5.753-.263 9.684-1.172 13.122-2.505 3.553-1.377 6.563-3.223 9.566-6.222 3.006-2.996 4.852-6.003 6.237-9.547 1.328-3.429 2.24-7.348 2.51-13.085.259-5.749.327-7.582.327-22.222 0-14.641-.068-16.478-.327-22.228-.27-5.739-1.182-9.656-2.51-13.083-1.385-3.546-3.231-6.554-6.237-9.55-3.006-2.999-6.012-4.84-9.569-6.216-3.445-1.333-7.374-2.242-13.127-2.505-5.764-.261-7.599-.325-22.279-.325h.017Zm-4.848 9.714c1.439-.002 3.044 0 4.848 0 14.428 0 16.138.052 21.835.31 5.269.241 8.129 1.119 10.033 1.857 2.522.976 4.32 2.145 6.21 4.032 1.892 1.887 3.062 3.683 4.044 6.199.74 1.898 1.621 4.75 1.861 10.006.259 5.683.315 7.39.315 21.776 0 14.387-.056 16.094-.315 21.776-.241 5.256-1.121 8.109-1.861 10.007-.979 2.516-2.152 4.307-4.044 6.192-1.891 1.887-3.687 3.055-6.21 4.032-1.902.741-4.764 1.617-10.033 1.858-5.696.258-7.407.314-21.835.314-14.429 0-16.14-.056-21.836-.314-5.268-.243-8.128-1.121-10.034-1.859-2.522-.977-4.323-2.145-6.214-4.032-1.892-1.886-3.062-3.679-4.044-6.196-.74-1.898-1.621-4.75-1.861-10.006-.259-5.683-.311-7.39-.311-21.785s.052-16.094.311-21.776c.241-5.256 1.121-8.109 1.861-10.009.98-2.516 2.152-4.313 4.044-6.199 1.891-1.887 3.692-3.055 6.214-4.034 1.905-.741 4.766-1.617 10.034-1.859 4.985-.225 6.917-.292 16.988-.303v.013Zm33.692 8.951c-3.579 0-6.484 2.895-6.484 6.466 0 3.572 2.905 6.469 6.484 6.469 3.58 0 6.485-2.897 6.485-6.469 0-3.571-2.905-6.468-6.485-6.468v.002Zm-28.844 7.558c-15.325 0-27.75 12.395-27.75 27.684 0 15.288 12.425 27.677 27.75 27.677s27.746-12.389 27.746-27.677-12.422-27.684-27.747-27.684h.001Zm0 9.714c9.947 0 18.012 8.045 18.012 17.97 0 9.923-8.065 17.969-18.012 17.969-9.949 0-18.012-8.046-18.012-17.969 0-9.925 8.063-17.97 18.012-17.97Z"/><g stroke="#A3A1FF" stroke-linecap="round" stroke-linejoin="round" stroke-width="1.95" clip-path="url(#g)"><path d="m64.33 216.02-10.595-5.632c-.351-.187-.581-.567-.639-1.058-.058-.491.061-1.052.331-1.559l7.118-13.393c.27-.507.668-.92 1.107-1.146.44-.227.884-.25 1.235-.063l10.596 5.632c.351.187.58.567.639 1.058.057.491-.062 1.052-.331 1.559l-7.119 13.393c-.27.507-.668.92-1.107 1.146-.439.227-.883.249-1.234.063ZM59.492 194.762l-1.986-1.056a1.432 1.432 0 0 0-1.166-.067 1.764 1.764 0 0 0-.942.835l-5.475 10.302c-.208.39-.267.839-.165 1.247.101.408.356.742.707.929l1.987 1.055M74.062 202.506l1.986 1.056c.352.187.606.521.708.929.102.408.042.856-.165 1.247l-5.476 10.302c-.207.39-.546.69-.94.834-.396.144-.816.12-1.167-.067l-1.986-1.056"/></g><g stroke="#A3A1FF" stroke-linecap="round" stroke-linejoin="round" stroke-width="1.89" clip-path="url(#h)"><path d="M14.939 124.379a10.774 10.774 0 0 1 5.283-2.53M12.644 127.207a10.71 10.71 0 0 0-1.203 3.438M34.363 128.931a2.018 2.018 0 1 1-3.884 1.1 2.018 2.018 0 0 1 3.884-1.1Z"/><path d="M31.662 127.623a10.75 10.75 0 0 0-7.336-5.688M22.652 128.764l2.716 4.661a.894.894 0 0 1-.312 1.219.893.893 0 0 1-.44.129l-5.394.135a.898.898 0 0 1-.805-1.335l2.676-4.794a.895.895 0 0 1 1.227-.343.893.893 0 0 1 .332.328ZM12.076 136.442a10.647 10.647 0 0 1-.58-1.876M14.287 139.918a10.753 10.753 0 0 0 9.136 3.211 10.766 10.766 0 0 0 8.02-5.428 10.77 10.77 0 0 0 .77-1.745"/></g><g stroke="#A3A1FF" stroke-linecap="round" stroke-linejoin="round" stroke-width="1.89" clip-path="url(#i)"><path d="m406.265 290.448-23.488 11.915a3.295 3.295 0 0 1-4.426-1.447l-10.425-20.553a3.292 3.292 0 0 1 1.447-4.425l23.489-11.914a3.288 3.288 0 0 1 4.425 1.447l10.425 20.552a3.293 3.293 0 0 1-1.447 4.425ZM370.16 284.767l29.361-14.892M378.969 280.3l-2.255-8.085M389.245 275.087l-2.255-8.084"/></g></g><defs><clipPath id="a"><path fill="#fff" d="M0 0h414v332H0z"/></clipPath><clipPath id="b"><path fill="#fff" d="m20.356 282.132 31.9 11.225-11.225 31.9-31.9-11.225z"/></clipPath><clipPath id="c"><path fill="#fff" d="M32 28.425 66.808 18l10.426 34.808-34.809 10.426z"/></clipPath><clipPath id="d"><path fill="#fff" d="m387 45 26.056 6.92-6.92 26.056-26.056-6.92z"/></clipPath><clipPath id="g"><path fill="#fff" d="m57.672 187 23.842 12.672-12.672 23.842L45 210.842z"/></clipPath><clipPath id="h"><path fill="#fff" d="m17.281 114 23.792 13.281-13.281 23.792L4 137.792z"/></clipPath><clipPath id="i"><path fill="#fff" d="M361 274.095 396.673 256l18.095 35.673-35.673 18.095z"/></clipPath><radialGradient id="e" cx="0" cy="0" r="1" gradientTransform="matrix(0 -136.768 127.513 0 279.307 233.129)" gradientUnits="userSpaceOnUse"><stop stop-color="#FD5"/><stop offset=".1" stop-color="#FD5"/><stop offset=".5" stop-color="#FF543E"/><stop offset="1" stop-color="#C837AB"/></radialGradient><radialGradient id="f" cx="0" cy="0" r="1" gradientTransform="rotate(78.654 52.059 181.112) scale(61.1419 252.592)" gradientUnits="userSpaceOnUse"><stop stop-color="#3771C8"/><stop offset=".128" stop-color="#3771C8"/><stop offset="1" stop-color="#60F" stop-opacity="0"/></radialGradient></defs></svg>